<svg
  width="40"
  height="40"
  role="img"
  version="1.1"
  id="Layer_1"
  xmlns="http://www.w3.org/2000/svg"
  xmlns:xlink="http://www.w3.org/1999/xlink"
  x="0px"
  y="0px"
  viewBox="0 0 256 256"
  enable-background="new 0 0 256 256"
  xml:space="preserve"
>
<path fill="#555555" opacity="1.000000" stroke="none" 
	d="
M220.112640,217.045029 
	C218.968628,218.328827 217.903641,219.694672 216.668732,220.884094 
	C199.108063,237.797806 177.506287,245.659805 153.775787,247.930450 
	C126.866074,250.505295 99.942795,250.916870 74.148018,240.973801 
	C66.537529,238.040207 59.547192,233.497772 52.413898,229.156784 
	C55.072617,228.066040 57.590096,227.511124 60.447784,227.027008 
	C79.707977,238.106659 100.435158,241.999466 121.986771,242.580490 
	C155.735199,243.490326 187.750259,238.671265 214.069092,214.908813 
	C216.211029,215.850189 218.161835,216.447617 220.112640,217.045029 
z"/>
<path fill="#B9B9B9" opacity="1.000000" stroke="none" 
	d="
M84.007950,14.161028 
	C89.447250,12.784261 94.816483,10.820158 100.341400,10.160968 
	C109.918060,9.018355 119.620384,7.850136 129.217514,8.187192 
	C148.016968,8.847437 166.861786,10.033358 184.712387,17.016926 
	C185.016281,17.135811 185.355743,17.163721 185.611877,17.829775 
	C183.341919,19.681009 181.138687,20.936554 178.544403,22.147118 
	C149.714981,13.592379 120.953636,13.392216 91.846535,18.432381 
	C89.147263,16.795385 86.577606,15.478207 84.007950,14.161028 
z"/>
<path fill="#B2B2B2" opacity="1.000000" stroke="none" 
	d="
M178.935471,22.192097 
	C181.138687,20.936554 183.341919,19.681009 185.798462,18.160137 
	C196.902969,21.990938 206.797653,27.642916 215.232834,35.708950 
	C216.274536,36.705044 217.563202,37.442860 218.722412,38.898636 
	C217.040527,40.680771 215.373657,41.864639 213.395172,42.970646 
	C203.211075,33.501293 191.416336,27.280783 178.935471,22.192097 
z"/>
<path fill="#9B9B9B" opacity="1.000000" stroke="none" 
	d="
M9.874451,105.969833 
	C10.892365,92.107521 14.263338,78.859703 20.954800,66.136642 
	C23.483648,66.326881 25.294071,66.671883 27.031868,67.377777 
	C25.935534,70.113640 24.594242,72.405029 23.943443,74.878128 
	C21.220011,85.227463 18.703684,95.631317 15.666183,106.011642 
	C13.438746,105.995338 11.656599,105.982590 9.874451,105.969833 
z"/>
<path fill="#616161" opacity="1.000000" stroke="none" 
	d="
M220.400116,216.883026 
	C218.161835,216.447617 216.211029,215.850189 214.207581,214.623047 
	C223.332916,204.703812 229.745392,193.633591 235.209808,182.025208 
	C237.386658,182.542419 239.263702,182.794281 241.140747,183.046143 
	C236.914734,195.845245 230.394882,207.251114 220.400116,216.883026 
z"/>
<path fill="#B2B2B2" opacity="1.000000" stroke="none" 
	d="
M83.614120,14.085427 
	C86.577606,15.478207 89.147263,16.795385 91.458153,18.527462 
	C81.125648,22.846764 71.051903,26.751171 60.840851,30.364258 
	C58.784874,29.008432 56.866199,27.943926 54.947529,26.879417 
	C62.966625,22.928125 70.967796,18.939589 79.023277,15.063926 
	C80.296593,14.451312 81.815125,14.348399 83.614120,14.085427 
z"/>
<path fill="#8D8D8D" opacity="1.000000" stroke="none" 
	d="
M9.521522,106.217918 
	C11.656599,105.982590 13.438746,105.995338 15.691097,106.446747 
	C15.792117,111.465530 15.176807,116.042221 15.112913,120.626602 
	C15.022846,127.088715 15.341162,133.556519 15.091757,140.022873 
	C12.855337,140.010193 11.012028,139.996536 9.168718,139.982880 
	C9.168676,128.810593 9.168634,117.638298 9.521522,106.217918 
z"/>
<path fill="#AEAEAE" opacity="1.000000" stroke="none" 
	d="
M54.589981,26.931179 
	C56.866199,27.943926 58.784874,29.008432 60.558502,30.582016 
	C52.958702,37.436947 45.503941,43.782803 37.866543,49.840385 
	C36.105476,48.330425 34.527050,47.108734 32.948624,45.887043 
	C40.043224,39.585674 47.137825,33.284309 54.589981,26.931179 
z"/>
<path fill="#6E6E6E" opacity="1.000000" stroke="none" 
	d="
M38.978642,219.086472 
	C33.323483,211.328522 27.668318,203.570587 22.270248,195.224838 
	C24.374144,194.029892 26.220943,193.422745 28.341719,193.030304 
	C33.447887,199.816162 38.280079,206.387314 43.100182,213.161591 
	C43.088089,213.364716 43.071846,213.771362 42.918869,214.073456 
	C41.503475,215.945862 40.241055,217.516159 38.978642,219.086472 
z"/>
<path fill="#6E6E6E" opacity="1.000000" stroke="none" 
	d="
M248.849258,138.990189 
	C248.222961,146.379669 247.596649,153.769135 246.495239,161.577713 
	C244.086212,162.002487 242.152283,162.008163 240.195221,161.603516 
	C240.952789,153.802307 241.733475,146.411407 242.908463,139.020950 
	C245.151611,139.010986 247.000427,139.000595 248.849258,138.990189 
z"/>
<path fill="#828282" opacity="1.000000" stroke="none" 
	d="
M243.844360,83.992279 
	C245.236588,91.025139 246.628830,98.058006 247.627991,105.536209 
	C245.455002,105.994019 243.675079,106.006493 241.711365,105.675568 
	C240.285614,98.565483 239.043671,91.798805 238.160446,84.889618 
	C240.294220,84.495499 242.069290,84.243889 243.844360,83.992279 
z"/>
<path fill="#A6A6A6" opacity="1.000000" stroke="none" 
	d="
M32.628342,46.029190 
	C34.527050,47.108734 36.105476,48.330425 37.731705,50.143860 
	C34.221165,56.162697 30.662828,61.589790 27.104492,67.016884 
	C25.294071,66.671883 23.483648,66.326881 21.269285,65.969254 
	C23.125505,61.589756 25.281515,57.164413 27.687098,52.879169 
	C29.010601,50.521511 30.753984,48.399559 32.628342,46.029190 
z"/>
<path fill="#686868" opacity="1.000000" stroke="none" 
	d="
M240.218323,162.013840 
	C242.152283,162.008163 244.086212,162.002487 246.434479,161.992462 
	C245.137772,168.853836 243.426758,175.719559 241.428253,182.815720 
	C239.263702,182.794281 237.386658,182.542419 235.223480,181.651794 
	C236.697662,174.679962 238.457993,168.346893 240.218323,162.013840 
z"/>
<path fill="#828282" opacity="1.000000" stroke="none" 
	d="
M9.093880,140.440948 
	C11.012028,139.996536 12.855337,140.010193 15.157833,140.479065 
	C16.191002,147.279236 16.764982,153.624207 16.897102,159.975555 
	C14.692878,159.985641 12.930514,159.989334 11.168150,159.993011 
	C10.451780,153.628357 9.735411,147.263687 9.093880,140.440948 
z"/>
<path fill="#7E7E7E" opacity="1.000000" stroke="none" 
	d="
M11.099857,160.411926 
	C12.930514,159.989334 14.692878,159.985641 17.075981,160.320602 
	C19.360773,167.112625 21.024830,173.565979 22.266838,180.017700 
	C19.862879,180.024582 17.880964,180.033112 15.899051,180.041626 
	C14.276555,173.638031 12.654060,167.234421 11.099857,160.411926 
z"/>
<path fill="#5B5B5B" opacity="1.000000" stroke="none" 
	d="
M39.158073,219.367554 
	C40.241055,217.516159 41.503475,215.945862 43.230713,214.214722 
	C49.166214,218.354645 54.636898,222.655426 60.107578,226.956207 
	C57.590096,227.511124 55.072617,228.066040 52.251789,228.857391 
	C47.744801,225.945419 43.541157,222.797028 39.158073,219.367554 
z"/>
<path fill="#8D8D8D" opacity="1.000000" stroke="none" 
	d="
M230.123978,52.957962 
	C232.991867,58.067799 235.859756,63.177631 238.430908,68.717682 
	C236.382782,69.845970 234.631393,70.544037 232.635315,70.986511 
	C229.554520,65.564445 226.718384,60.397961 224.133530,54.951721 
	C226.297852,54.100628 228.210922,53.529293 230.123978,52.957962 
z"/>
<path fill="#757575" opacity="1.000000" stroke="none" 
	d="
M248.906830,138.546310 
	C247.000427,139.000595 245.151611,139.010986 242.892120,138.605194 
	C242.382355,132.465408 242.283249,126.741821 242.600372,121.015312 
	C244.958603,121.004028 246.900589,120.995651 248.842590,120.987282 
	C248.883194,126.692329 248.923782,132.397385 248.906830,138.546310 
z"/>
<path fill="#949494" opacity="1.000000" stroke="none" 
	d="
M229.971344,52.642586 
	C228.210922,53.529293 226.297852,54.100628 223.856934,54.753990 
	C220.342026,51.533501 217.354965,48.230980 214.271088,44.610634 
	C214.018448,43.878040 213.862625,43.463272 213.706787,43.048508 
	C215.373657,41.864639 217.040527,40.680771 218.886200,39.198250 
	C222.649567,43.375465 226.234146,47.851334 229.971344,52.642586 
z"/>
<path fill="#888888" opacity="1.000000" stroke="none" 
	d="
M232.879990,71.242111 
	C234.631393,70.544037 236.382782,69.845970 238.488052,69.071381 
	C240.549561,73.732811 242.257187,78.470764 243.904587,83.600494 
	C242.069290,84.243889 240.294220,84.495499 237.943787,84.612320 
	C235.872269,80.065727 234.376129,75.653915 232.879990,71.242111 
z"/>
<path fill="#7E7E7E" opacity="1.000000" stroke="none" 
	d="
M248.900665,120.526306 
	C246.900589,120.995651 244.958603,121.004028 242.533737,120.552094 
	C241.998978,115.400848 241.947083,110.709908 241.895172,106.018967 
	C243.675079,106.006493 245.455002,105.994019 247.680023,105.973984 
	C248.403015,110.666054 248.680878,115.365692 248.900665,120.526306 
z"/>
<path fill="#757575" opacity="1.000000" stroke="none" 
	d="
M15.937071,180.427826 
	C17.880964,180.033112 19.862879,180.024582 22.429688,180.367096 
	C24.698973,184.750626 26.383358,188.783112 28.067745,192.815598 
	C26.220943,193.422745 24.374144,194.029892 22.236721,194.871063 
	C19.955761,190.341400 17.965425,185.577713 15.937071,180.427826 
z"/>
<path fill="#DADADA" opacity="1.000000" stroke="none" 
	d="
M241.711365,105.675560 
	C241.947083,110.709908 241.998978,115.400848 242.117508,120.555008 
	C242.283249,126.741821 242.382355,132.465408 242.497803,138.604767 
	C241.733475,146.411407 240.952789,153.802307 240.195221,161.603516 
	C238.457993,168.346893 236.697662,174.679962 234.923676,181.386459 
	C229.745392,193.633591 223.332916,204.703812 214.016449,214.279114 
	C187.750259,238.671265 155.735199,243.490326 121.986771,242.580490 
	C100.435158,241.999466 79.707977,238.106659 60.447792,227.026993 
	C54.636898,222.655426 49.166214,218.354645 43.383690,213.912613 
	C43.071846,213.771362 43.088089,213.364716 43.434448,213.108795 
	C47.507294,208.930984 51.233772,205.009079 55.164108,201.087921 
	C55.367966,201.088669 55.775681,201.090256 55.917446,201.397858 
	C58.378868,203.732285 60.698521,205.759140 63.249485,208.045837 
	C70.119652,211.877350 76.416832,216.458755 83.458038,218.841446 
	C110.261978,227.911652 137.674774,227.935501 165.002686,221.611496 
	C175.909393,219.087540 186.692352,215.353348 195.360626,206.954193 
	C200.162781,202.226883 204.653351,197.640305 209.425598,192.872711 
	C212.498123,187.167557 215.288971,181.643417 218.333099,175.852844 
	C219.947418,170.776810 221.308472,165.967209 222.805542,160.807190 
	C223.580688,155.308182 224.219788,150.159592 224.949524,144.577271 
	C225.185425,138.771729 225.330673,133.399918 225.578491,127.582176 
	C225.160233,120.069633 224.639450,113.002998 224.141190,105.608856 
	C224.085266,104.851845 224.006821,104.422340 223.945648,103.582230 
	C222.372498,91.745049 218.624786,81.052452 212.936462,70.655693 
	C209.549362,65.678139 206.240753,61.038280 203.059357,56.065712 
	C206.913666,52.131489 210.640778,48.529976 214.367889,44.928459 
	C217.354965,48.230980 220.342026,51.533501 223.605682,55.033752 
	C226.718384,60.397961 229.554520,65.564445 232.635315,70.986519 
	C234.376129,75.653915 235.872269,80.065727 237.585083,84.754829 
	C239.043671,91.798805 240.285614,98.565483 241.711365,105.675560 
z"/>
<path fill="#FDFDFD" opacity="1.000000" stroke="none" 
	d="
M214.271088,44.610634 
	C210.640778,48.529976 206.913666,52.131489 202.743073,55.953865 
	C201.884277,56.009995 201.468933,55.845257 200.924652,55.387108 
	C193.173477,47.584202 184.199020,42.345425 173.688507,38.950127 
	C171.633667,38.171143 169.929581,37.480270 168.165787,37.016396 
	C145.892853,31.158678 123.374229,31.025345 100.792755,34.607136 
	C95.094482,35.510975 89.584160,37.599682 83.626823,39.176247 
	C67.988228,44.803940 55.294609,53.674862 46.591606,68.150063 
	C35.089314,86.718132 31.962488,106.950806 32.435341,128.479919 
	C32.589169,133.617554 32.823170,138.310608 33.002106,143.447296 
	C33.599323,148.601471 34.251602,153.312042 34.882847,158.429504 
	C36.187344,163.640045 37.512875,168.443665 38.857780,173.616089 
	C40.568569,177.683502 42.259983,181.382141 44.003323,185.425705 
	C47.690250,190.876160 51.325249,195.981659 54.960251,201.087173 
	C51.233772,205.009079 47.507294,208.930984 43.446541,212.905670 
	C38.280079,206.387314 33.447887,199.816162 28.341719,193.030304 
	C26.383358,188.783112 24.698973,184.750626 22.851736,180.368744 
	C21.024830,173.565979 19.360773,167.112625 17.517841,160.314209 
	C16.764982,153.624207 16.191002,147.279236 15.550943,140.478088 
	C15.341162,133.556519 15.022846,127.088715 15.112913,120.626602 
	C15.176807,116.042221 15.792117,111.465530 16.136387,106.450302 
	C18.703684,95.631317 21.220011,85.227463 23.943443,74.878128 
	C24.594242,72.405029 25.935534,70.113640 27.031868,67.377777 
	C30.662828,61.589790 34.221165,56.162697 37.914345,50.432133 
	C45.503941,43.782803 52.958702,37.436947 60.695808,30.873333 
	C71.051903,26.751171 81.125648,22.846764 91.587769,18.847279 
	C120.953636,13.392216 149.714981,13.592379 178.544403,22.147120 
	C191.416336,27.280783 203.211075,33.501293 213.395172,42.970642 
	C213.862625,43.463272 214.018448,43.878040 214.271088,44.610634 
z"/>
<path fill="#5B5B5B" opacity="1.000000" stroke="none" 
	d="
M209.143906,193.053741 
	C204.653351,197.640305 200.162781,202.226883 195.022690,206.706390 
	C193.407257,206.403854 192.441498,206.038086 191.475433,206.037354 
	C150.070267,206.005783 108.665031,205.989059 67.260040,206.078659 
	C65.844864,206.081711 64.432076,207.191864 63.018177,207.785995 
	C60.698521,205.759140 58.378868,203.732285 56.224983,201.234009 
	C60.253105,197.498520 64.115448,194.234482 68.362244,191.140717 
	C78.464531,191.498260 88.182106,191.724197 97.900780,191.791275 
	C98.595108,191.796066 99.297470,190.636948 100.360901,190.065460 
	C104.546761,191.166595 107.975510,194.957718 112.911377,191.833160 
	C124.146355,191.849533 134.872437,191.818665 145.886383,192.002350 
	C149.781036,191.530945 153.387802,190.844986 157.168823,190.501587 
	C159.216385,191.229614 161.087326,191.935226 162.963409,191.949158 
	C176.085129,192.046539 189.208282,191.951202 202.330002,192.048355 
	C204.603653,192.065216 206.872726,192.702835 209.143906,193.053741 
z"/>
<path fill="#555555" opacity="1.000000" stroke="none" 
	d="
M63.249485,208.045837 
	C64.432076,207.191864 65.844864,206.081711 67.260040,206.078659 
	C108.665031,205.989059 150.070267,206.005783 191.475433,206.037354 
	C192.441498,206.038086 193.407257,206.403854 194.711121,206.847137 
	C186.692352,215.353348 175.909393,219.087540 165.002686,221.611496 
	C137.674774,227.935501 110.261978,227.911652 83.458038,218.841446 
	C76.416832,216.458755 70.119652,211.877350 63.249485,208.045837 
z"/>
<path fill="#616161" opacity="1.000000" stroke="none" 
	d="
M209.425598,192.872711 
	C206.872726,192.702835 204.603653,192.065216 202.330002,192.048355 
	C189.208282,191.951202 176.085129,192.046539 162.963409,191.949158 
	C161.087326,191.935226 159.216385,191.229614 157.479034,190.326340 
	C164.711670,184.527634 171.808319,179.246704 179.320511,174.051056 
	C181.687881,174.424362 183.637405,174.941406 185.591934,174.961136 
	C194.523346,175.051270 203.456985,174.938675 212.387833,175.053391 
	C214.289413,175.077820 216.182693,175.747086 218.079803,176.119263 
	C215.288971,181.643417 212.498123,187.167557 209.425598,192.872711 
z"/>
<path fill="#7E7E7E" opacity="1.000000" stroke="none" 
	d="
M224.118668,105.936371 
	C224.639450,113.002998 225.160233,120.069633 225.148041,127.577705 
	C214.761703,128.014832 204.908340,128.010529 194.953583,127.606644 
	C194.095932,122.359276 193.339706,117.511490 192.907883,112.342560 
	C194.973755,111.681526 196.709518,111.087982 198.457779,111.048553 
	C204.065262,110.922096 209.688141,110.786911 215.284164,111.069580 
	C219.537643,111.284431 222.680054,110.249046 224.118668,105.936371 
z"/>
<path fill="#6E6E6E" opacity="1.000000" stroke="none" 
	d="
M224.858887,145.010986 
	C224.219788,150.159592 223.580688,155.308182 222.288300,160.773712 
	C210.333801,161.028183 199.032578,160.965729 187.811951,160.541763 
	C189.728378,155.045731 191.564224,149.911194 193.904388,144.824127 
	C204.558792,144.918060 214.708832,144.964523 224.858887,145.010986 
z"/>
<path fill="#757575" opacity="1.000000" stroke="none" 
	d="
M224.949524,144.577271 
	C214.708832,144.964523 204.558792,144.918060 193.963379,144.393524 
	C194.030334,138.612366 194.542664,133.309296 195.054993,128.006226 
	C204.908340,128.010529 214.761703,128.014832 225.045502,128.023621 
	C225.330673,133.399918 225.185425,138.771729 224.949524,144.577271 
z"/>
<path fill="#686868" opacity="1.000000" stroke="none" 
	d="
M187.731354,160.903290 
	C199.032578,160.965729 210.333801,161.028183 222.152283,161.124115 
	C221.308472,165.967209 219.947418,170.776810 218.333099,175.852844 
	C216.182693,175.747086 214.289413,175.077820 212.387833,175.053391 
	C203.456985,174.938675 194.523346,175.051270 185.591934,174.961136 
	C183.637405,174.941406 181.687881,174.424362 179.440643,173.732697 
	C182.007278,169.187119 184.869324,165.045197 187.731354,160.903290 
z"/>
<path fill="#828282" opacity="1.000000" stroke="none" 
	d="
M224.141190,105.608856 
	C222.680054,110.249046 219.537643,111.284431 215.284164,111.069580 
	C209.688141,110.786911 204.065262,110.922096 198.457779,111.048553 
	C196.709518,111.087982 194.973755,111.681526 192.726959,112.001846 
	C190.655548,108.017319 189.089462,104.052353 187.983612,100.048927 
	C199.292038,99.669884 210.140213,99.329292 221.131531,99.307243 
	C222.159225,101.081474 223.043808,102.537155 223.928375,103.992844 
	C224.006821,104.422340 224.085266,104.851845 224.141190,105.608856 
z"/>
<path fill="#6E6E6E" opacity="1.000000" stroke="none" 
	d="
M67.977798,190.970444 
	C64.115448,194.234482 60.253105,197.498520 56.083221,200.926407 
	C55.775681,201.090256 55.367966,201.088669 55.164108,201.087921 
	C51.325249,195.981659 47.690250,190.876160 44.342922,185.180450 
	C54.414005,184.389786 64.197418,184.189301 73.817337,184.274200 
	C71.761833,186.696533 69.869812,188.833481 67.977798,190.970444 
z"/>
<path fill="#7E7E7E" opacity="1.000000" stroke="none" 
	d="
M223.945648,103.582230 
	C223.043808,102.537155 222.159225,101.081474 221.061768,98.931717 
	C218.916870,93.821220 216.984833,89.404808 215.037994,84.601776 
	C213.025986,80.474945 211.028778,76.734734 209.016663,72.660675 
	C208.976578,71.881706 208.951416,71.436584 209.335114,70.992424 
	C210.834290,70.993385 211.924637,70.993385 213.014969,70.993385 
	C218.624786,81.052452 222.372498,91.745049 223.945648,103.582230 
z"/>
<path fill="#888888" opacity="1.000000" stroke="none" 
	d="
M212.936462,70.655693 
	C211.924637,70.993385 210.834290,70.993385 209.055298,70.821228 
	C205.181961,67.051903 201.997299,63.454746 198.821167,59.646317 
	C198.829712,59.435047 198.813171,59.012489 199.118561,58.838875 
	C199.967163,57.670345 200.510376,56.675430 201.053604,55.680519 
	C201.468933,55.845257 201.884277,56.009995 202.615875,56.286575 
	C206.240753,61.038280 209.549362,65.678139 212.936462,70.655693 
z"/>
<path fill="#949494" opacity="1.000000" stroke="none" 
	d="
M32.515511,128.035339 
	C31.962488,106.950806 35.089314,86.718132 46.914772,68.214355 
	C48.336250,68.713280 49.171974,69.361366 49.855865,70.316788 
	C47.477638,74.408875 45.251244,78.193619 42.865974,82.300110 
	C41.128914,86.617836 39.393703,90.560333 38.010387,94.622658 
	C36.073341,100.311089 37.224270,101.907310 43.191521,101.977203 
	C51.961826,102.079933 60.733746,102.045227 69.368225,102.425652 
	C67.139885,111.190140 65.048279,119.598053 62.490749,128.002625 
	C52.188381,128.011292 42.351948,128.023315 32.515511,128.035339 
z"/>
<path fill="#A6A6A6" opacity="1.000000" stroke="none" 
	d="
M83.987465,39.143898 
	C89.584160,37.599682 95.094482,35.510975 100.792755,34.607136 
	C123.374229,31.025345 145.892853,31.158678 168.165787,37.016396 
	C169.929581,37.480270 171.633667,38.171143 173.536682,39.276825 
	C172.400650,40.208370 170.987488,40.428806 169.813980,41.080677 
	C168.446030,41.840557 167.287628,42.977631 165.642761,43.895653 
	C154.938889,42.559467 144.661682,40.846012 134.314758,40.101803 
	C119.715225,39.051712 105.276779,41.040306 90.890091,43.617783 
	C88.532883,41.892372 86.260178,40.518135 83.987465,39.143898 
z"/>
<path fill="#7E7E7E" opacity="1.000000" stroke="none" 
	d="
M38.838402,173.247299 
	C37.512875,168.443665 36.187344,163.640045 35.357922,158.423492 
	C44.784115,158.005707 53.715530,158.080200 62.643215,157.931244 
	C64.501587,157.900238 66.346153,157.042023 68.447426,156.824463 
	C71.394394,161.729736 74.091019,166.375610 76.392838,171.109619 
	C65.812698,171.463165 55.625046,171.666183 45.443825,172.043015 
	C43.230194,172.124939 41.039604,172.829514 38.838402,173.247299 
z"/>
<path fill="#828282" opacity="1.000000" stroke="none" 
	d="
M68.197083,156.565048 
	C66.346153,157.042023 64.501587,157.900238 62.643215,157.931244 
	C53.715530,158.080200 44.784115,158.005707 35.378952,158.016571 
	C34.251602,153.312042 33.599323,148.601471 33.466885,143.446259 
	C44.002129,143.000107 54.017536,142.998596 64.211540,143.325714 
	C65.659119,147.957916 66.928101,152.261475 68.197083,156.565048 
z"/>
<path fill="#888888" opacity="1.000000" stroke="none" 
	d="
M64.032944,142.997086 
	C54.017536,142.998596 44.002129,143.000107 33.521942,143.002625 
	C32.823170,138.310608 32.589169,133.617554 32.435341,128.479919 
	C42.351948,128.023315 52.188381,128.011292 62.556107,128.448044 
	C63.402580,133.596893 63.717762,138.296997 64.032944,142.997086 
z"/>
<path fill="#757575" opacity="1.000000" stroke="none" 
	d="
M38.857780,173.616089 
	C41.039604,172.829514 43.230194,172.124939 45.443825,172.043015 
	C55.625046,171.666183 65.812698,171.463165 76.643196,171.327301 
	C78.811707,173.010452 80.335068,174.564087 81.891098,176.340271 
	C81.923775,176.562836 81.984268,177.008652 81.700348,177.177673 
	C78.937897,179.560745 76.459366,181.774765 73.980835,183.988800 
	C64.197418,184.189301 54.414005,184.389786 44.290993,184.835510 
	C42.259983,181.382141 40.568569,177.683502 38.857780,173.616089 
z"/>
<path fill="#9B9B9B" opacity="1.000000" stroke="none" 
	d="
M83.626823,39.176247 
	C86.260178,40.518135 88.532883,41.892372 90.561104,43.774467 
	C84.523438,46.844559 78.730263,49.406784 72.590561,52.033562 
	C68.163841,54.733192 64.083641,57.368271 59.717560,60.175095 
	C56.622444,63.565796 53.813221,66.784752 50.754921,70.005081 
	C50.505844,70.006462 50.007698,70.009445 50.007698,70.009445 
	C49.171974,69.361366 48.336250,68.713280 47.177361,68.000908 
	C55.294609,53.674862 67.988228,44.803940 83.626823,39.176247 
z"/>
<path fill="#9B9B9B" opacity="1.000000" stroke="none" 
	d="
M166.038300,43.951035 
	C167.287628,42.977631 168.446030,41.840557 169.813980,41.080677 
	C170.987488,40.428806 172.400650,40.208370 173.859665,39.470436 
	C184.199020,42.345425 193.173477,47.584202 200.924652,55.387100 
	C200.510376,56.675430 199.967163,57.670345 198.772858,58.824997 
	C193.768204,56.646694 189.414627,54.308647 184.813950,51.729752 
	C178.390656,48.976276 172.214478,46.463657 166.038300,43.951035 
z"/>
<path fill="#DADADA" opacity="1.000000" stroke="none" 
	d="
M187.523361,100.087387 
	C189.089462,104.052353 190.655548,108.017319 192.402573,112.322998 
	C193.339706,117.511490 194.095932,122.359276 194.953583,127.606644 
	C194.542664,133.309296 194.030334,138.612366 193.459030,144.346054 
	C191.564224,149.911194 189.728378,155.045731 187.811951,160.541779 
	C184.869324,165.045197 182.007278,169.187119 179.025116,173.647400 
	C171.808319,179.246704 164.711670,184.527634 157.304779,189.983795 
	C153.387802,190.844986 149.781036,191.530945 145.784531,191.571625 
	C145.247864,187.952133 145.100952,184.977890 145.036774,181.544220 
	C144.426208,175.052567 143.732910,169.020355 142.964294,162.625854 
	C140.900101,159.042984 143.381699,159.358643 145.360046,158.957993 
	C156.451996,156.711716 165.697388,152.107941 169.047546,139.651215 
	C169.718628,134.875702 170.207214,130.454147 170.746277,125.641418 
	C168.843094,120.508102 166.889435,115.765945 164.827484,110.671242 
	C164.498505,105.196167 164.277832,100.073647 164.109100,94.688248 
	C164.192047,94.249466 164.223083,94.073555 164.510590,93.713867 
	C167.876175,89.985420 170.985275,86.440750 174.317307,82.921463 
	C174.540222,82.946846 174.985458,83.003922 175.117310,83.296326 
	C176.449875,84.799004 177.650558,86.009285 178.997955,87.520645 
	C181.937561,91.910286 184.730453,95.998833 187.523361,100.087387 
z"/>
<path fill="#DADADA" opacity="1.000000" stroke="none" 
	d="
M81.984268,177.008652 
	C81.984268,177.008652 81.923775,176.562836 82.177261,176.147629 
	C84.994125,173.812683 87.557503,171.892960 90.338074,169.949936 
	C90.555275,169.926651 90.979019,170.033096 91.030289,170.375214 
	C94.794167,177.672348 101.108772,178.805206 108.079987,178.082291 
	C111.266846,177.751801 113.316528,178.247177 112.973724,182.448441 
	C112.735138,185.857468 112.568817,188.821701 112.402496,191.785934 
	C107.975510,194.957718 104.546761,191.166595 100.128853,189.816406 
	C93.682762,185.350143 87.833519,181.179398 81.984268,177.008652 
z"/>
<path fill="#616161" opacity="1.000000" stroke="none" 
	d="
M112.911385,191.833160 
	C112.568817,188.821701 112.735138,185.857468 113.439240,182.446228 
	C124.302689,182.000687 134.628372,182.002167 144.954041,182.003647 
	C145.100952,184.977890 145.247864,187.952133 145.496643,191.357086 
	C134.872437,191.818665 124.146355,191.849533 112.911385,191.833160 
z"/>
<path fill="#616161" opacity="1.000000" stroke="none" 
	d="
M81.700348,177.177673 
	C87.833519,181.179398 93.682762,185.350143 99.764053,189.769958 
	C99.297470,190.636948 98.595108,191.796066 97.900780,191.791275 
	C88.182106,191.724197 78.464531,191.498260 68.362244,191.140717 
	C69.869812,188.833481 71.761833,186.696533 73.817337,184.274200 
	C76.459366,181.774765 78.937897,179.560745 81.700348,177.177673 
z"/>
<path fill="#888888" opacity="1.000000" stroke="none" 
	d="
M187.983612,100.048935 
	C184.730453,95.998833 181.937561,91.910286 179.236511,87.186020 
	C181.322083,86.033676 183.309189,85.102356 185.310623,85.070496 
	C195.222610,84.912666 205.138367,84.992393 215.052795,84.988388 
	C216.984833,89.404808 218.916870,93.821220 220.918640,98.613174 
	C210.140213,99.329292 199.292038,99.669884 187.983612,100.048935 
z"/>
<path fill="#8D8D8D" opacity="1.000000" stroke="none" 
	d="
M215.037994,84.601776 
	C205.138367,84.992393 195.222610,84.912666 185.310623,85.070496 
	C183.309189,85.102356 181.322083,86.033676 179.089813,86.884933 
	C177.650558,86.009285 176.449875,84.799004 175.399567,83.120056 
	C179.017273,79.422363 182.484589,76.193352 186.423492,72.971878 
	C194.273911,72.984444 201.652740,72.989479 209.031570,72.994514 
	C211.028778,76.734734 213.025986,80.474945 215.037994,84.601776 
z"/>
<path fill="#949494" opacity="1.000000" stroke="none" 
	d="
M209.016663,72.660675 
	C201.652740,72.989479 194.273911,72.984444 186.587387,72.704651 
	C187.180923,71.283905 188.082153,70.137917 189.266998,68.822716 
	C191.698517,66.434769 193.846405,64.216034 196.252090,61.850327 
	C197.277466,61.088093 198.045059,60.472839 198.812637,59.857586 
	C201.997299,63.454746 205.181961,67.051903 208.646439,70.820267 
	C208.951416,71.436584 208.976578,71.881706 209.016663,72.660675 
z"/>
<path fill="#AEAEAE" opacity="1.000000" stroke="none" 
	d="
M198.821167,59.646317 
	C198.045059,60.472839 197.277466,61.088093 195.784058,61.850906 
	C152.301300,61.998943 109.544296,62.029823 66.787689,61.914848 
	C64.524582,61.908760 62.264782,60.668865 60.003445,60.003349 
	C64.083641,57.368271 68.163841,54.733192 72.980850,52.201012 
	C75.513351,52.535824 77.308792,52.967812 79.104759,52.970001 
	C112.318443,53.010506 145.532227,53.018417 178.745850,52.955639 
	C180.851532,52.951660 182.956024,52.313648 185.061066,51.970600 
	C189.414627,54.308647 193.768204,56.646694 198.467468,58.998615 
	C198.813171,59.012489 198.829712,59.435047 198.821167,59.646317 
z"/>
<path fill="#FDFDFD" opacity="1.000000" stroke="none" 
	d="
M90.120880,169.973221 
	C87.557503,171.892960 84.994125,173.812683 82.144592,175.925064 
	C80.335068,174.564087 78.811707,173.010452 77.037994,171.239151 
	C74.091019,166.375610 71.394394,161.729736 68.447426,156.824463 
	C66.928101,152.261475 65.659119,147.957916 64.211540,143.325714 
	C63.717762,138.296997 63.402580,133.596893 63.022041,128.451385 
	C65.048279,119.598053 67.139885,111.190140 69.566650,102.179794 
	C73.621681,96.091118 77.341545,90.604874 81.360909,84.965546 
	C86.099953,81.151680 90.539505,77.490898 95.326340,73.790390 
	C107.178825,67.163857 119.586464,63.749443 132.767685,65.159477 
	C140.547226,65.991676 148.146347,68.510406 156.074799,70.506042 
	C162.246780,74.792969 168.170593,78.844521 174.094391,82.896072 
	C170.985275,86.440750 167.876175,89.985420 164.315094,93.398483 
	C162.185181,93.025993 160.337952,92.217857 158.863251,92.657967 
	C155.402679,93.690773 152.182358,95.508614 148.744324,96.643829 
	C146.406601,97.415741 143.859695,97.957703 141.415497,97.924667 
	C135.137650,97.839798 128.724670,96.423096 122.627449,97.319389 
	C115.782372,98.325615 110.099113,97.693466 103.879158,94.355774 
	C95.102196,89.645950 92.664261,91.743561 92.913834,102.406212 
	C93.762871,107.298622 93.372093,111.412712 90.023338,114.982689 
	C89.229301,115.829185 89.203011,117.395844 88.555130,118.933319 
	C88.032639,123.531525 87.778587,127.827644 87.526680,132.548157 
	C88.634918,136.734390 89.741013,140.496246 90.910202,144.595886 
	C94.648682,148.622757 98.324074,152.311874 101.820107,156.280518 
	C99.070450,158.722321 96.500145,160.884583 93.686920,162.815674 
	C88.443878,156.508087 84.967468,155.149643 80.663979,158.070999 
	C82.829636,159.772324 84.873138,161.377701 87.060364,163.300934 
	C88.176361,165.736938 89.148621,167.855087 90.120880,169.973221 
z"/>
<path fill="#9B9B9B" opacity="1.000000" stroke="none" 
	d="
M81.061417,85.118622 
	C77.341545,90.604874 73.621681,96.091118 69.703392,101.823227 
	C60.733746,102.045227 51.961826,102.079933 43.191521,101.977203 
	C37.224270,101.907310 36.073341,100.311089 38.010387,94.622658 
	C39.393703,90.560333 41.128914,86.617836 43.272041,82.388992 
	C46.124165,82.438171 48.408836,82.936966 50.698990,82.963524 
	C59.149223,83.061485 67.604080,82.889969 76.050262,83.099442 
	C77.736305,83.141258 79.391823,84.413658 81.061417,85.118622 
z"/>
<path fill="#A6A6A6" opacity="1.000000" stroke="none" 
	d="
M81.360909,84.965546 
	C79.391823,84.413658 77.736305,83.141258 76.050262,83.099442 
	C67.604080,82.889969 59.149223,83.061485 50.698990,82.963524 
	C48.408836,82.936966 46.124165,82.438171 43.430912,82.067245 
	C45.251244,78.193619 47.477638,74.408875 49.855865,70.316788 
	C50.007698,70.009445 50.505844,70.006462 51.032631,70.270134 
	C53.760193,71.021950 55.955467,71.900749 58.162678,71.931816 
	C68.714661,72.080353 79.271164,71.916962 89.822670,72.081467 
	C91.550133,72.108391 93.260689,73.219887 94.979057,73.830116 
	C90.539505,77.490898 86.099953,81.151680 81.360909,84.965546 
z"/>
<path fill="#B2B2B2" opacity="1.000000" stroke="none" 
	d="
M184.813950,51.729752 
	C182.956024,52.313648 180.851532,52.951660 178.745850,52.955639 
	C145.532227,53.018417 112.318443,53.010506 79.104759,52.970001 
	C77.308792,52.967812 75.513351,52.535824 73.327377,52.136459 
	C78.730263,49.406784 84.523438,46.844559 90.645599,44.125648 
	C105.276779,41.040306 119.715225,39.051712 134.314758,40.101803 
	C144.661682,40.846012 154.938889,42.559467 165.642761,43.895657 
	C172.214478,46.463657 178.390656,48.976276 184.813950,51.729752 
z"/>
<path fill="#AAAAAA" opacity="1.000000" stroke="none" 
	d="
M95.326340,73.790390 
	C93.260689,73.219887 91.550133,72.108391 89.822670,72.081467 
	C79.271164,71.916962 68.714661,72.080353 58.162678,71.931816 
	C55.955467,71.900749 53.760193,71.021950 51.281708,70.268753 
	C53.813221,66.784752 56.622444,63.565796 59.717560,60.175095 
	C62.264782,60.668865 64.524582,61.908760 66.787689,61.914848 
	C109.544296,62.029823 152.301300,61.998943 195.526276,61.997887 
	C193.846405,64.216034 191.698517,66.434769 188.800140,68.825005 
	C179.172791,68.997940 170.294891,68.928108 161.419922,69.058388 
	C159.549973,69.085846 157.690765,69.847382 155.826614,70.270676 
	C148.146347,68.510406 140.547226,65.991676 132.767685,65.159477 
	C119.586464,63.749443 107.178825,67.163857 95.326340,73.790390 
z"/>
<path fill="#6E6E6E" opacity="1.000000" stroke="none" 
	d="
M168.865051,140.005157 
	C165.697388,152.107941 156.451996,156.711716 145.360046,158.957993 
	C143.381699,159.358643 140.900101,159.042984 142.492950,162.627960 
	C133.038742,162.986450 123.980560,162.980545 115.005798,162.615723 
	C116.740646,159.767059 115.237198,159.470612 113.131310,158.978226 
	C109.710602,158.178406 106.391136,156.945541 103.097176,155.567017 
	C107.105057,151.155914 111.044693,147.073288 115.264717,142.823425 
	C117.363197,141.089249 119.181297,139.522293 121.336288,138.197327 
	C133.118698,138.627609 144.566025,138.745834 156.008820,139.040436 
	C160.299652,139.150909 164.579956,139.671524 168.865051,140.005157 
z"/>
<path fill="#686868" opacity="1.000000" stroke="none" 
	d="
M114.922379,162.974640 
	C123.980560,162.980545 133.038742,162.986450 142.568268,162.990234 
	C143.732910,169.020355 144.426208,175.052567 145.036774,181.544220 
	C134.628372,182.002167 124.302689,182.000687 113.511490,182.001434 
	C113.316528,178.247177 111.266846,177.751801 108.079987,178.082291 
	C101.108772,178.805206 94.794167,177.672348 91.289062,170.157715 
	C92.596886,169.403534 93.697205,169.208969 95.025635,169.215973 
	C95.916206,169.283875 96.578659,169.150208 97.549454,169.014481 
	C98.269035,168.995316 98.680267,168.978210 99.402847,169.012970 
	C102.378014,171.980392 105.811348,173.016785 108.899895,170.646469 
	C111.398407,168.728989 112.950485,165.578308 114.922379,162.974640 
z"/>
<path fill="#757575" opacity="1.000000" stroke="none" 
	d="
M169.047546,139.651215 
	C164.579956,139.671524 160.299652,139.150909 156.008820,139.040436 
	C144.566025,138.745834 133.118698,138.627609 121.495758,137.922729 
	C122.536308,135.928879 123.754272,134.451569 125.258743,132.807129 
	C128.364548,130.077393 131.183853,127.514771 134.339661,125.194145 
	C136.460556,125.624573 138.244019,125.965424 140.029495,125.976273 
	C150.251328,126.038445 160.473648,126.022202 170.695801,126.032585 
	C170.207214,130.454147 169.718628,134.875702 169.047546,139.651215 
z"/>
<path fill="#7E7E7E" opacity="1.000000" stroke="none" 
	d="
M170.746277,125.641418 
	C160.473648,126.022202 150.251328,126.038445 140.029495,125.976273 
	C138.244019,125.965424 136.460556,125.624573 134.494537,124.926819 
	C135.198013,123.272087 136.083084,122.126663 137.253174,120.809906 
	C141.348358,117.086823 145.158539,113.535080 149.353210,110.147629 
	C154.803711,110.549202 159.869736,110.786491 164.935776,111.023788 
	C166.889435,115.765945 168.843094,120.508102 170.746277,125.641418 
z"/>
<path fill="#9B9B9B" opacity="1.000000" stroke="none" 
	d="
M92.982079,101.997963 
	C92.664261,91.743561 95.102196,89.645950 103.879158,94.355774 
	C110.099113,97.693466 115.782372,98.325615 122.627449,97.319389 
	C128.724670,96.423096 135.137650,97.839798 141.415497,97.924667 
	C143.859695,97.957703 146.406601,97.415741 148.744324,96.643829 
	C152.182358,95.508614 155.402679,93.690773 158.863251,92.657967 
	C160.337952,92.217857 162.185181,93.025993 164.058624,93.582268 
	C164.223083,94.073555 164.192047,94.249466 163.816589,94.857956 
	C160.644653,97.857872 157.817139,100.425209 154.570343,102.966080 
	C151.028442,102.627113 147.907120,102.060539 144.782959,102.044334 
	C127.516380,101.954765 110.249107,101.999352 92.982079,101.997963 
z"/>
<path fill="#A6A6A6" opacity="1.000000" stroke="none" 
	d="
M156.074799,70.506042 
	C157.690765,69.847382 159.549973,69.085846 161.419922,69.058388 
	C170.294891,68.928108 179.172791,68.997940 188.516510,68.994217 
	C188.082153,70.137917 187.180923,71.283905 186.115814,72.697113 
	C182.484589,76.193352 179.017273,79.422363 175.267700,82.827652 
	C174.985458,83.003922 174.540222,82.946846 174.317307,82.921463 
	C168.170593,78.844521 162.246780,74.792969 156.074799,70.506042 
z"/>
<path fill="#828282" opacity="1.000000" stroke="none" 
	d="
M154.989624,102.992554 
	C157.817139,100.425209 160.644653,97.857872 163.764679,95.120819 
	C164.277832,100.073647 164.498505,105.196167 164.827484,110.671242 
	C159.869736,110.786491 154.803711,110.549202 149.524658,109.865768 
	C151.204315,107.277275 153.096970,105.134918 154.989624,102.992554 
z"/>
<path fill="#6E6E6E" opacity="1.000000" stroke="none" 
	d="
M94.797516,169.014404 
	C93.697205,169.208969 92.596886,169.403534 91.237793,169.815598 
	C90.979019,170.033096 90.555275,169.926651 90.338074,169.949936 
	C89.148621,167.855087 88.176361,165.736938 87.437057,163.315918 
	C90.089790,163.694534 92.509567,164.376022 95.134422,165.290619 
	C95.906326,166.366180 96.473137,167.208633 96.696289,167.996765 
	C95.834259,168.299759 95.315887,168.657074 94.797516,169.014404 
z"/>
<path fill="#949494" opacity="1.000000" stroke="none" 
	d="
M154.570343,102.966080 
	C153.096970,105.134918 151.204315,107.277275 149.140198,109.701492 
	C145.158539,113.535080 141.348358,117.086823 136.829895,120.806458 
	C132.006699,120.649162 127.894920,120.101479 123.776237,120.043243 
	C113.992622,119.904907 104.204781,120.068855 94.421005,119.936401 
	C92.549644,119.911064 90.689095,119.086868 88.823563,118.631241 
	C89.203011,117.395844 89.229301,115.829185 90.023338,114.982689 
	C93.372093,111.412712 93.762871,107.298622 92.913834,102.406212 
	C110.249107,101.999352 127.516380,101.954765 144.782959,102.044334 
	C147.907120,102.060539 151.028442,102.627113 154.570343,102.966080 
z"/>
<path fill="#8D8D8D" opacity="1.000000" stroke="none" 
	d="
M88.555130,118.933319 
	C90.689095,119.086868 92.549644,119.911064 94.421005,119.936401 
	C104.204781,120.068855 113.992622,119.904907 123.776237,120.043243 
	C127.894920,120.101479 132.006699,120.649162 136.544891,120.977798 
	C136.083084,122.126663 135.198013,123.272087 134.158035,124.684830 
	C131.183853,127.514771 128.364548,130.077393 124.877083,132.648743 
	C111.980789,132.479568 99.752655,132.301666 87.524536,132.123764 
	C87.778587,127.827644 88.032639,123.531525 88.555130,118.933319 
z"/>
<path fill="#888888" opacity="1.000000" stroke="none" 
	d="
M87.526672,132.548157 
	C99.752655,132.301666 111.980789,132.479568 124.590576,132.815857 
	C123.754272,134.451569 122.536308,135.928879 121.158859,137.680771 
	C119.181297,139.522293 117.363197,141.089249 114.846161,142.797043 
	C107.751625,142.633621 101.357254,142.191544 94.959480,142.135345 
	C93.595009,142.123337 92.218216,143.513779 90.847099,144.258102 
	C89.741013,140.496246 88.634918,136.734390 87.526672,132.548157 
z"/>
<path fill="#DADADA" opacity="1.000000" stroke="none" 
	d="
M97.039955,168.051071 
	C96.473137,167.208633 95.906326,166.366180 95.040009,165.022675 
	C94.470276,164.030029 94.200058,163.538437 93.929840,163.046844 
	C96.500145,160.884583 99.070450,158.722321 102.077744,156.256714 
	C102.686127,155.934097 102.857529,155.914795 103.028938,155.895477 
	C106.391136,156.945541 109.710602,158.178406 113.131310,158.978226 
	C115.237198,159.470612 116.740646,159.767059 115.005798,162.615738 
	C112.950485,165.578308 111.398407,168.728989 108.899895,170.646469 
	C105.811348,173.016785 102.378014,171.980392 99.207047,168.769165 
	C98.117569,168.303238 97.535240,168.132965 96.975243,167.984222 
	C96.997581,168.005768 97.039955,168.051071 97.039955,168.051071 
z"/>
<path fill="#828282" opacity="1.000000" stroke="none" 
	d="
M103.097176,155.567017 
	C102.857529,155.914795 102.686127,155.934097 102.257095,155.977173 
	C98.324074,152.311874 94.648682,148.622757 90.910202,144.595886 
	C92.218216,143.513779 93.595009,142.123337 94.959480,142.135345 
	C101.357254,142.191544 107.751625,142.633621 114.565781,142.964279 
	C111.044693,147.073288 107.105057,151.155914 103.097176,155.567017 
z"/>
<path fill="#8D8D8D" opacity="1.000000" stroke="none" 
	d="
M93.686928,162.815674 
	C94.200058,163.538437 94.470276,164.030029 94.834915,164.789566 
	C92.509567,164.376022 90.089790,163.694534 87.293335,162.998062 
	C84.873138,161.377701 82.829636,159.772324 80.663979,158.070999 
	C84.967468,155.149643 88.443878,156.508087 93.686928,162.815674 
z"/>
<path fill="#DADADA" opacity="1.000000" stroke="none" 
	d="
M95.025635,169.215973 
	C95.315887,168.657074 95.834259,168.299759 96.696289,167.996765 
	C97.039955,168.051071 96.997581,168.005768 97.027451,168.253113 
	C97.118584,168.672470 97.179848,168.844498 97.241104,169.016541 
	C96.578659,169.150208 95.916206,169.283875 95.025635,169.215973 
z"/>
<path fill="#6E6E6E" opacity="1.000000" stroke="none" 
	d="
M97.549454,169.014465 
	C97.179848,168.844498 97.118584,168.672470 97.005112,168.231567 
	C97.535240,168.132965 98.117569,168.303238 98.895699,168.717316 
	C98.680267,168.978210 98.269035,168.995316 97.549454,169.014465 
z"/>
</svg>