<svg version="1.1" id="Layer_1" xmlns="http://www.w3.org/2000/svg" xmlns:xlink="http://www.w3.org/1999/xlink" x="0px" y="0px"
	 width="40" height="40" viewBox="0 0 512 512" enable-background="new 0 0 512 512" xml:space="preserve">
<path fill="#5C6B61" opacity="1.000000" stroke="none" 
	d="
M225.000000,1.000005 
	C246.020889,1.000000 267.041779,1.000000 288.471771,1.413111 
	C293.320557,2.621727 297.783966,3.304471 302.195923,4.231928 
	C323.154327,8.637684 343.573273,14.535251 363.200409,23.433643 
	C387.318604,34.368153 409.258179,48.553635 428.569489,66.420731 
	C440.428680,77.393036 451.557770,89.447784 461.331085,102.297043 
	C470.730469,114.654602 477.962036,128.661072 485.796356,141.911041 
	C482.726624,139.511887 479.877930,137.275940 477.308228,134.755585 
	C463.836792,121.542747 450.436005,108.257881 436.672882,94.755066 
	C435.518341,94.391747 434.701599,94.165863 433.884888,94.166206 
	C394.952209,94.182594 356.019501,94.218552 316.826752,94.199799 
	C316.389435,94.150406 316.212158,94.153519 315.565765,94.114532 
	C295.718811,94.131226 276.340973,94.190025 256.498627,94.208649 
	C236.370560,94.196976 216.706985,94.225479 196.574249,94.208138 
	C189.439911,94.131630 182.774689,94.076477 176.109482,94.074501 
	C144.946594,94.065262 113.783661,94.096535 82.620911,94.033585 
	C79.254524,94.026787 76.936684,94.196228 76.986000,98.687935 
	C77.218391,119.848274 77.172249,141.011673 77.190697,162.630463 
	C77.148438,247.134293 77.136223,331.181641 77.169495,415.229004 
	C77.170120,416.814819 77.709152,418.400452 78.160431,420.276550 
	C98.241753,440.572418 118.178558,460.559113 138.041046,480.619415 
	C139.607330,482.201263 140.656799,484.294891 141.590393,486.070374 
	C126.572258,478.713287 113.103630,469.642670 100.044151,459.773438 
	C84.728302,448.199005 71.136589,434.852600 58.971699,420.213470 
	C42.046509,399.845825 28.418236,377.318451 18.789425,352.500366 
	C11.145124,332.797333 5.259698,312.661804 2.913740,291.580658 
	C2.811383,290.660828 1.661775,289.857574 0.999997,289.000000 
	C1.000000,267.979095 1.000000,246.958206 1.416339,225.524139 
	C2.215483,224.269135 2.795557,223.461823 2.949993,222.579987 
	C4.225977,215.294022 5.095897,207.921295 6.703623,200.711945 
	C12.186030,176.127808 21.011377,152.823761 33.500587,130.873993 
	C42.759453,114.601562 53.354130,99.268890 66.107231,85.655838 
	C75.718224,75.396790 86.110458,65.752594 96.928871,56.766441 
	C118.535637,38.819115 142.775558,25.263617 169.299072,15.848783 
	C186.728775,9.661905 204.475250,4.882142 222.917603,2.897510 
	C223.671082,2.816425 224.308517,1.657021 225.000000,1.000005 
z"/>
<path fill="#444C46" opacity="1.000000" stroke="none" 
	d="
M437.010681,94.998047 
	C450.436005,108.257881 463.836792,121.542747 477.308228,134.755585 
	C479.877930,137.275940 482.726624,139.511887 485.752411,141.940002 
	C486.058228,142.000977 485.990448,141.921661 486.114136,142.115891 
	C486.405487,142.575470 486.626495,142.784424 487.073730,143.258301 
	C489.737885,149.148697 492.351898,154.666626 494.697723,160.296310 
	C502.083557,178.021179 507.044403,196.427124 510.118744,215.375610 
	C510.650574,218.653275 512.018372,221.795303 513.000000,225.000000 
	C513.000000,246.020889 513.000000,267.041779 512.599854,288.558807 
	C511.453430,293.181793 510.741425,297.315216 509.955078,301.434448 
	C505.436401,325.104309 498.485535,348.020538 487.733276,369.621704 
	C477.893890,389.388763 466.518250,408.304443 451.116791,424.280518 
	C439.176025,436.666687 426.913177,448.872253 413.756409,459.923401 
	C397.349823,473.704285 378.687897,484.193909 358.925385,492.615051 
	C339.528961,500.880219 319.514160,506.932281 298.630463,510.090576 
	C295.348694,510.586884 292.206665,512.007019 289.000000,513.000000 
	C267.979095,513.000000 246.958206,513.000000 225.439377,512.600586 
	C219.881348,511.158173 214.845856,509.972260 209.756989,509.096466 
	C186.357376,505.069489 164.154099,497.478424 142.803375,486.713501 
	C142.445099,486.314026 142.195740,486.136261 141.963531,486.026672 
	C142.005051,486.060699 141.946457,486.150665 141.946457,486.150665 
	C140.656799,484.294891 139.607330,482.201263 138.041046,480.619415 
	C118.178558,460.559113 98.241753,440.572418 78.624756,420.206635 
	C83.076340,419.836823 87.227028,419.824219 91.377739,419.818329 
	C126.573631,419.768341 161.769516,419.719543 197.427368,419.767212 
	C217.571701,419.817596 237.254044,419.771088 257.395813,419.843079 
	C277.584869,419.917969 297.314545,419.874359 317.506653,419.890869 
	C333.244476,419.957855 348.519989,419.991730 363.795349,419.965515 
	C387.865814,419.924194 411.936249,419.842499 436.249023,419.809265 
	C436.857880,419.660339 436.956573,419.384308 436.873016,418.549988 
	C436.968475,333.870850 436.979248,249.654251 436.978027,165.437637 
	C436.978027,164.280304 436.826477,163.122986 436.792175,161.501404 
	C436.896057,139.024124 436.953369,117.011086 437.010681,94.998047 
z"/>
<path fill="#000000" opacity="0.000000" stroke="none" 
	d="
M513.000000,224.531342 
	C512.018372,221.795303 510.650574,218.653275 510.118744,215.375610 
	C507.044403,196.427124 502.083557,178.021179 494.697723,160.296310 
	C492.351898,154.666626 489.737885,149.148697 487.020508,143.018143 
	C486.598969,142.169281 486.330994,141.990952 485.990448,141.921661 
	C485.990448,141.921661 486.058228,142.000977 486.102173,141.972000 
	C477.962036,128.661072 470.730469,114.654602 461.331085,102.297043 
	C451.557770,89.447784 440.428680,77.393036 428.569489,66.420731 
	C409.258179,48.553635 387.318604,34.368153 363.200409,23.433643 
	C343.573273,14.535251 323.154327,8.637684 302.195923,4.231928 
	C297.783966,3.304471 293.320557,2.621727 288.940430,1.413111 
	C363.593719,1.000000 438.187408,1.000000 513.000000,1.000000 
	C513.000000,75.354088 513.000000,149.708389 513.000000,224.531342 
z"/>
<path fill="#000000" opacity="0.000000" stroke="none" 
	d="
M289.468658,513.000000 
	C292.206665,512.007019 295.348694,510.586884 298.630463,510.090576 
	C319.514160,506.932281 339.528961,500.880219 358.925385,492.615051 
	C378.687897,484.193909 397.349823,473.704285 413.756409,459.923401 
	C426.913177,448.872253 439.176025,436.666687 451.116791,424.280518 
	C466.518250,408.304443 477.893890,389.388763 487.733276,369.621704 
	C498.485535,348.020538 505.436401,325.104309 509.955078,301.434448 
	C510.741425,297.315216 511.453430,293.181793 512.599854,289.027466 
	C513.000000,363.593719 513.000000,438.187408 513.000000,513.000000 
	C438.645905,513.000000 364.291626,513.000000 289.468658,513.000000 
z"/>
<path fill="#000000" opacity="0.000000" stroke="none" 
	d="
M142.936646,486.901031 
	C164.154099,497.478424 186.357376,505.069489 209.756989,509.096466 
	C214.845856,509.972260 219.881348,511.158173 224.970718,512.600586 
	C150.406296,513.000000 75.812599,513.000000 1.000000,513.000000 
	C1.000000,438.645905 1.000000,364.291626 0.999997,289.468658 
	C1.661775,289.857574 2.811383,290.660828 2.913740,291.580658 
	C5.259698,312.661804 11.145124,332.797333 18.789425,352.500366 
	C28.418236,377.318451 42.046509,399.845825 58.971699,420.213470 
	C71.136589,434.852600 84.728302,448.199005 100.044151,459.773438 
	C113.103630,469.642670 126.572258,478.713287 141.590393,486.070374 
	C141.946457,486.150665 142.005051,486.060699 142.052673,486.258118 
	C142.289978,486.771301 142.568771,486.919830 142.936646,486.901031 
z"/>
<path fill="#000000" opacity="0.000000" stroke="none" 
	d="
M224.531342,1.000005 
	C224.308517,1.657021 223.671082,2.816425 222.917603,2.897510 
	C204.475250,4.882142 186.728775,9.661905 169.299072,15.848783 
	C142.775558,25.263617 118.535637,38.819115 96.928871,56.766441 
	C86.110458,65.752594 75.718224,75.396790 66.107231,85.655838 
	C53.354130,99.268890 42.759453,114.601562 33.500587,130.873993 
	C21.011377,152.823761 12.186030,176.127808 6.703623,200.711945 
	C5.095897,207.921295 4.225977,215.294022 2.949993,222.579987 
	C2.795557,223.461823 2.215483,224.269135 1.416339,225.055481 
	C1.000000,150.406296 1.000000,75.812576 1.000000,1.000000 
	C75.354088,1.000000 149.708389,1.000000 224.531342,1.000005 
z"/>
<path fill="#FFFFFF" opacity="1.000000" stroke="none" 
	d="
M196.965408,419.670380 
	C161.769516,419.719543 126.573631,419.768341 91.377739,419.818329 
	C87.227028,419.824219 83.076340,419.836823 78.461304,419.916260 
	C77.709152,418.400452 77.170120,416.814819 77.169495,415.229004 
	C77.136223,331.181641 77.148438,247.134293 77.641327,162.597855 
	C83.454750,162.081772 88.782730,162.038849 94.110764,162.030350 
	C128.412079,161.975571 162.713409,161.928329 197.035950,161.940247 
	C197.057175,162.001862 196.998871,162.118469 196.994751,162.578979 
	C196.982224,248.583115 196.973816,334.126740 196.965408,419.670380 
M110.530724,196.162872 
	C110.207100,196.363708 110.108780,196.643692 110.137802,197.934845 
	C110.137802,207.853409 110.137802,217.771973 110.137802,227.779388 
	C128.418854,227.779388 145.973022,227.779388 163.691666,227.779388 
	C163.691666,217.089951 163.691666,206.724014 163.691666,196.118500 
	C145.888000,196.118500 128.448273,196.118500 110.530724,196.162872 
M110.142052,326.935425 
	C110.142052,336.866364 110.142052,346.797272 110.142052,356.896301 
	C128.384872,356.896301 145.940811,356.896301 163.704651,356.896301 
	C163.704651,346.189911 163.704651,335.817108 163.704651,325.175537 
	C145.906036,325.175537 128.458557,325.175537 110.547569,325.204803 
	C110.220474,325.385406 110.119400,325.651794 110.142052,326.935425 
M164.057480,287.330566 
	C164.057480,278.554718 164.057480,269.778900 164.057480,260.803680 
	C145.818024,260.803680 128.137375,260.803680 110.504242,260.803680 
	C110.504242,271.625366 110.504242,282.011902 110.504242,292.828156 
	C127.679008,292.828156 144.454208,292.805603 161.229233,292.846100 
	C164.817230,292.854767 163.882751,290.277679 164.057480,287.330566 
z"/>
<path fill="#F9C74B" opacity="1.000000" stroke="none" 
	d="
M436.672882,94.755066 
	C436.953369,117.011086 436.896057,139.024124 436.341370,161.525101 
	C422.876862,162.017365 409.909760,162.004623 396.942688,162.029602 
	C370.347076,162.080826 343.751495,162.152252 317.104065,162.119827 
	C317.052216,162.024292 316.942139,161.836838 316.929260,161.629913 
	C316.916351,161.422989 316.790985,161.027710 316.845825,160.560287 
	C316.880249,138.388840 316.859863,116.684807 316.929260,94.808151 
	C317.019073,94.635521 317.086823,94.252296 317.086823,94.252296 
	C356.019501,94.218552 394.952209,94.182594 433.884888,94.166206 
	C434.701599,94.165863 435.518341,94.391747 436.672882,94.755066 
z"/>
<path fill="#74B58B" opacity="1.000000" stroke="none" 
	d="
M197.014740,161.878616 
	C162.713409,161.928329 128.412079,161.975571 94.110764,162.030350 
	C88.782730,162.038849 83.454750,162.081772 77.676117,162.141388 
	C77.172249,141.011673 77.218391,119.848274 76.986000,98.687935 
	C76.936684,94.196228 79.254524,94.026787 82.620911,94.033585 
	C113.783661,94.096535 144.946594,94.065262 176.109482,94.074501 
	C182.774689,94.076477 189.439911,94.131630 196.568115,94.652008 
	C197.025635,117.387360 197.020187,139.632980 197.014740,161.878616 
z"/>
<path fill="#D35F53" opacity="1.000000" stroke="none" 
	d="
M197.035950,161.940247 
	C197.020187,139.632980 197.025635,117.387360 197.037247,94.697861 
	C216.706985,94.225479 236.370560,94.196976 256.506653,94.655838 
	C256.990051,117.368889 257.000946,139.594589 257.001343,161.930328 
	C256.990875,162.040390 256.998566,162.261490 256.539062,162.170898 
	C236.386002,162.093033 216.692429,162.105759 196.998871,162.118469 
	C196.998871,162.118469 197.057175,162.001862 197.035950,161.940247 
z"/>
<path fill="#AA3F3A" opacity="1.000000" stroke="none" 
	d="
M257.011841,161.820282 
	C257.000946,139.594589 256.990051,117.368889 256.971130,94.696014 
	C276.340973,94.190025 295.718811,94.131226 315.680939,94.268784 
	C316.432739,94.663597 316.624176,94.835472 316.839447,94.980774 
	C316.859863,116.684807 316.880249,138.388840 316.696106,160.681091 
	C316.302063,161.445312 316.140747,161.644150 315.543274,161.937653 
	C295.723267,161.946381 276.367554,161.883331 257.011841,161.820282 
z"/>
<path fill="#B0483E" opacity="1.000000" stroke="none" 
	d="
M316.929260,94.808151 
	C316.624176,94.835472 316.432739,94.663597 316.150024,94.310883 
	C316.212158,94.153519 316.389435,94.150406 316.826752,94.199799 
	C317.086823,94.252296 317.019073,94.635521 316.929260,94.808151 
z"/>
<path fill="#EFEFEF" opacity="1.000000" stroke="none" 
	d="
M317.155914,162.215363 
	C343.751495,162.152252 370.347076,162.080826 396.942688,162.029602 
	C409.909760,162.004623 422.876862,162.017365 436.294800,161.989349 
	C436.826477,163.122986 436.978027,164.280304 436.978027,165.437637 
	C436.979248,249.654251 436.968475,333.870850 436.719635,418.652344 
	C436.287079,419.374054 436.129089,419.560944 436.006683,419.777893 
	C411.936249,419.842499 387.865814,419.924194 363.795349,419.965515 
	C348.519989,419.991730 333.244476,419.957855 317.495514,419.433228 
	C317.014099,334.678680 317.005493,250.441895 317.004913,166.205109 
	C317.004913,164.875198 317.103394,163.545273 317.155914,162.215363 
M403.756500,258.539154 
	C403.604065,258.218414 403.351440,258.078339 402.068756,257.993378 
	C384.854523,257.993378 367.640259,257.993378 350.390930,257.993378 
	C350.390930,269.046936 350.390930,279.392853 350.390930,289.694336 
	C368.359680,289.694336 385.881714,289.694336 403.767242,289.694336 
	C403.767242,279.199341 403.767242,269.099335 403.756500,258.539154 
M403.756531,196.539139 
	C403.604065,196.218460 403.351410,196.078384 402.068756,195.993378 
	C384.854523,195.993378 367.640259,195.993378 350.390930,195.993378 
	C350.390930,207.046722 350.390930,217.391724 350.390930,227.694351 
	C368.359894,227.694351 385.881775,227.694351 403.767242,227.694351 
	C403.767242,217.199310 403.767242,207.099304 403.756531,196.539139 
z"/>
<path fill="#CECECE" opacity="1.000000" stroke="none" 
	d="
M317.104065,162.119827 
	C317.103394,163.545273 317.004913,164.875198 317.004913,166.205109 
	C317.005493,250.441895 317.014099,334.678680 317.033081,419.373108 
	C297.314545,419.874359 277.584869,419.917969 257.400024,419.392151 
	C256.944427,355.312714 256.943970,291.802643 257.412537,228.257660 
	C265.588043,228.133530 273.294525,228.044357 281.255676,227.938843 
	C281.610229,227.620560 281.710083,227.318588 281.869537,226.550354 
	C281.889404,216.385864 281.849670,206.687668 281.822510,196.738800 
	C281.558685,196.355560 281.282379,196.222961 280.542786,196.011230 
	C272.371979,195.877853 264.664429,195.823608 256.958160,195.315155 
	C256.972473,183.994446 256.985535,173.127975 256.998566,162.261490 
	C256.998566,162.261490 256.990875,162.040390 257.001343,161.930328 
	C276.367554,161.883331 295.723267,161.946381 315.778564,161.982147 
	C316.478119,161.954865 316.942139,161.836838 316.942139,161.836838 
	C316.942139,161.836838 317.052216,162.024292 317.104065,162.119827 
z"/>
<path fill="#EFEFEF" opacity="1.000000" stroke="none" 
	d="
M256.539062,162.170898 
	C256.985535,173.127975 256.972473,183.994446 256.965881,195.387009 
	C256.972351,195.913086 257.008331,196.053070 256.541779,196.007446 
	C246.831955,195.961807 237.588684,195.961807 228.296844,195.961807 
	C228.296844,206.985413 228.296844,217.350082 228.296844,227.983597 
	C238.100189,227.983597 247.545151,227.983597 256.973816,228.060150 
	C256.957489,228.136688 256.943512,228.292603 256.943512,228.292603 
	C256.943970,291.802643 256.944427,355.312714 256.940643,419.273682 
	C237.254044,419.771088 217.571701,419.817596 197.427368,419.767212 
	C196.973816,334.126740 196.982224,248.583115 196.994751,162.578979 
	C216.692429,162.105759 236.386002,162.093033 256.539062,162.170898 
z"/>
<path fill="#E6E6E6" opacity="1.000000" stroke="none" 
	d="
M436.249023,419.809265 
	C436.129089,419.560944 436.287079,419.374054 436.634033,419.114868 
	C436.956573,419.384308 436.857880,419.660339 436.249023,419.809265 
z"/>
<path fill="#5C6B61" opacity="1.000000" stroke="none" 
	d="
M142.803375,486.713501 
	C142.568771,486.919830 142.289978,486.771301 142.011139,486.224060 
	C142.195740,486.136261 142.445099,486.314026 142.803375,486.713501 
z"/>
<path fill="#5C6B61" opacity="1.000000" stroke="none" 
	d="
M486.114136,142.115891 
	C486.330994,141.990952 486.598969,142.169281 486.847595,142.696838 
	C486.626495,142.784424 486.405487,142.575470 486.114136,142.115891 
z"/>
<path fill="#74B58B" opacity="1.000000" stroke="none" 
	d="
M164.057129,287.807800 
	C163.882751,290.277679 164.817230,292.854767 161.229233,292.846100 
	C144.454208,292.805603 127.679008,292.828156 110.504242,292.828156 
	C110.504242,282.011902 110.504242,271.625366 110.504242,260.803680 
	C128.137375,260.803680 145.818024,260.803680 164.057480,260.803680 
	C164.057480,269.778900 164.057480,278.554718 164.057129,287.807800 
z"/>
<path fill="#74B58B" opacity="1.000000" stroke="none" 
	d="
M111.011093,325.175537 
	C128.458557,325.175537 145.906036,325.175537 163.704651,325.175537 
	C163.704651,335.817108 163.704651,346.189911 163.704651,356.896301 
	C145.940811,356.896301 128.384872,356.896301 110.142052,356.896301 
	C110.142052,346.797272 110.142052,336.866364 110.345917,326.356476 
	C110.735268,325.601166 110.889038,325.400482 111.011093,325.175537 
z"/>
<path fill="#74B58B" opacity="1.000000" stroke="none" 
	d="
M111.008537,196.118500 
	C128.448273,196.118500 145.888000,196.118500 163.691666,196.118500 
	C163.691666,206.724014 163.691666,217.089951 163.691666,227.779388 
	C145.973022,227.779388 128.418854,227.779388 110.137802,227.779388 
	C110.137802,217.771973 110.137802,207.853409 110.341751,197.345917 
	C110.735863,196.570175 110.890144,196.357346 111.008537,196.118500 
z"/>
<path fill="#8CC29F" opacity="1.000000" stroke="none" 
	d="
M110.779327,325.190186 
	C110.889038,325.400482 110.735268,325.601166 110.397057,325.890747 
	C110.119400,325.651794 110.220474,325.385406 110.779327,325.190186 
z"/>
<path fill="#8CC29F" opacity="1.000000" stroke="none" 
	d="
M110.769630,196.140686 
	C110.890144,196.357346 110.735863,196.570175 110.390724,196.879883 
	C110.108780,196.643692 110.207100,196.363708 110.769630,196.140686 
z"/>
<path fill="#B0483E" opacity="1.000000" stroke="none" 
	d="
M316.929260,161.629913 
	C316.942139,161.836838 316.478119,161.954865 316.242859,161.910370 
	C316.140747,161.644150 316.302063,161.445312 316.641266,161.148514 
	C316.790985,161.027710 316.916351,161.422989 316.929260,161.629913 
z"/>
<path fill="#F9C74B" opacity="1.000000" stroke="none" 
	d="
M403.767242,196.999283 
	C403.767242,207.099304 403.767242,217.199310 403.767242,227.694351 
	C385.881775,227.694351 368.359894,227.694351 350.390930,227.694351 
	C350.390930,217.391724 350.390930,207.046722 350.390930,195.993378 
	C367.640259,195.993378 384.854523,195.993378 402.639099,196.221680 
	C403.366577,196.662323 403.552490,196.845428 403.767242,196.999283 
z"/>
<path fill="#F9C74B" opacity="1.000000" stroke="none" 
	d="
M403.767242,258.999329 
	C403.767242,269.099335 403.767242,279.199341 403.767242,289.694336 
	C385.881714,289.694336 368.359680,289.694336 350.390930,289.694336 
	C350.390930,279.392853 350.390930,269.046936 350.390930,257.993378 
	C367.640259,257.993378 384.854523,257.993378 402.639099,258.221680 
	C403.366577,258.662323 403.552521,258.845459 403.767242,258.999329 
z"/>
<path fill="#F7CE67" opacity="1.000000" stroke="none" 
	d="
M403.761871,258.769226 
	C403.552521,258.845459 403.366577,258.662323 403.104004,258.284424 
	C403.351440,258.078339 403.604065,258.218414 403.761871,258.769226 
z"/>
<path fill="#F7CE67" opacity="1.000000" stroke="none" 
	d="
M403.761902,196.769211 
	C403.552490,196.845428 403.366577,196.662323 403.104004,196.284454 
	C403.351410,196.078384 403.604065,196.218460 403.761902,196.769211 
z"/>
<path fill="#AA3F3A" opacity="1.000000" stroke="none" 
	d="
M256.964600,195.841232 
	C264.664429,195.823608 272.371979,195.877853 280.654541,196.180008 
	C281.397156,196.641800 281.590637,196.828979 281.809967,196.989471 
	C281.849670,206.687668 281.889404,216.385864 281.712280,226.686600 
	C281.295715,227.485260 281.130920,227.707275 281.001007,227.955185 
	C273.294525,228.044357 265.588043,228.133530 257.412537,228.257660 
	C256.943512,228.292603 256.957489,228.136688 256.977417,227.592865 
	C257.000977,216.717056 257.004639,206.385071 257.008301,196.053070 
	C257.008331,196.053070 256.972351,195.913086 256.964600,195.841232 
z"/>
<path fill="#B24843" opacity="1.000000" stroke="none" 
	d="
M281.255676,227.938843 
	C281.130920,227.707275 281.295715,227.485260 281.652710,227.152893 
	C281.710083,227.318588 281.610229,227.620560 281.255676,227.938843 
z"/>
<path fill="#B24843" opacity="1.000000" stroke="none" 
	d="
M281.822510,196.738800 
	C281.590637,196.828979 281.397156,196.641800 281.117798,196.259155 
	C281.282379,196.222961 281.558685,196.355560 281.822510,196.738800 
z"/>
<path fill="#D35F53" opacity="1.000000" stroke="none" 
	d="
M256.541748,196.007446 
	C257.004639,206.385071 257.000977,216.717056 256.993713,227.516327 
	C247.545151,227.983597 238.100189,227.983597 228.296844,227.983597 
	C228.296844,217.350082 228.296844,206.985413 228.296844,195.961807 
	C237.588684,195.961807 246.831955,195.961807 256.541748,196.007446 
z"/>
</svg>