<svg
  width="40"
  height="40"
  role="img"
  viewBox="0 0 280.000000 280.000000"
  xmlns="http://www.w3.org/2000/svg"
  preserveAspectRatio="xMidYMid meet"
>
  <title>Mongoose</title>
  <g
    transform="translate(0.000000,280.000000) scale(0.100000,-0.100000)"
    fill="#880000"
    stroke="none"
  >
    <path
      d="M1461 1792 c-23 -7 -19 -11 42 -40 70 -33 95 -55 30 -26 -119 53
    -306 80 -337 48 -26 -25 -20 -97 15 -180 42 -101 134 -196 240 -248 41 -20 61
    -34 44 -30 -91 18 -212 105 -278 200 -33 48 -67 142 -67 184 l0 30 -67 0
    c-155 0 -362 -52 -533 -133 -146 -70 -341 -196 -440 -285 l-45 -41 65 15 c123
    28 163 34 247 34 182 0 330 -56 429 -163 l54 -58 0 95 0 96 115 0 114 0 52
    -96 c28 -52 52 -94 54 -92 5 6 68 123 84 156 l15 32 118 0 118 0 0 -185 c0
    -102 4 -185 9 -185 5 0 25 20 45 44 22 27 59 56 92 72 50 24 69 28 182 31 70
    2 137 6 149 9 22 4 22 5 6 39 -16 33 -16 37 -1 52 18 17 29 20 363 89 121 25
    241 55 267 66 42 18 51 28 78 84 38 80 38 107 4 123 -31 14 -29 15 -48 -29
    l-16 -35 3 43 2 43 -60 25 c-109 45 -217 78 -480 148 -191 50 -590 91 -664 68z
    m-106 -123 c66 -27 191 -119 140 -102 -11 3 -26 10 -32 16 -18 13 -16 1 3 -28
    9 -14 12 -25 6 -25 -6 0 -13 4 -16 9 -3 5 -15 11 -26 14 -23 6 -21 1 25 -52
    l20 -24 -23 6 c-22 5 -22 5 -4 -21 36 -52 36 -56 3 -36 -86 50 -201 196 -201
    254 0 27 18 26 105 -11z m635 -53 c86 -14 221 -46 230 -53 14 -13 -36 -23
    -113 -23 -92 0 -149 16 -172 47 -7 10 -28 23 -46 29 -30 11 -31 13 -9 13 14 0
    63 -6 110 -13z m140 -316 c-168 -54 -211 -88 -196 -157 4 -21 1 -18 -14 12
    -22 46 -16 64 33 94 41 25 207 78 247 79 8 0 -23 -12 -70 -28z"
    />
    <path
      d="M1090 896 l0 -146 105 0 105 0 0 148 0 147 -39 -64 c-62 -101 -63
    -101 -102 -39 -73 117 -69 119 -69 -46z"
    />
  </g>
</svg>