<svg version="1.1" id="Layer_1" xmlns="http://www.w3.org/2000/svg" xmlns:xlink="http://www.w3.org/1999/xlink" x="0px" y="0px"
	 width="40" height="40" viewBox="0 0 512 512" enable-background="new 0 0 512 512" xml:space="preserve">
<path fill="#7584F2" opacity="1.000000" stroke="none" 
	d="
M1.000003,289.000000 
	C1.000000,267.645782 1.000000,246.291550 1.333047,224.807037 
	C2.774729,219.501526 4.028780,214.352524 4.967886,209.146729 
	C10.197515,180.157013 20.390236,152.936249 35.219498,127.599083 
	C49.903816,102.509567 68.604408,80.646065 90.724854,61.663136 
	C104.741493,49.634586 119.809456,39.162937 136.056076,30.563745 
	C163.346085,16.119381 192.232834,6.322340 223.099258,2.916157 
	C223.794861,2.839396 224.369141,1.663303 225.000000,1.000004 
	C246.020889,1.000000 267.041779,1.000000 288.194824,1.340333 
	C289.168365,2.116931 289.964081,2.763909 290.858063,2.957913 
	C304.771301,5.977161 318.831665,8.425948 332.586670,12.039675 
	C350.354156,16.707573 366.973022,24.355923 382.977020,33.417297 
	C399.339172,42.681488 414.871765,53.199642 428.376495,66.187576 
	C440.115936,77.477753 451.292480,89.523903 461.452606,102.246330 
	C477.533081,122.382202 489.495575,145.001053 498.126251,169.361252 
	C504.320068,186.843338 509.239563,204.589355 511.085785,223.108124 
	C511.154297,223.795532 512.336731,224.371887 513.000000,225.000000 
	C513.000000,242.020889 513.000000,259.041779 512.663452,276.474487 
	C510.568787,275.389069 508.697571,274.005005 507.069122,272.378021 
	C461.657867,227.007935 416.272705,181.611740 370.873962,136.229141 
	C369.348389,134.704102 367.726562,133.275391 366.021240,131.501617 
	C358.951965,124.389244 352.011047,117.577019 345.032898,110.728218 
	C343.576691,111.920265 342.310364,112.956909 340.848785,113.724197 
	C335.385254,108.127342 330.185425,102.729401 324.814301,97.507645 
	C322.718994,95.470566 320.238251,93.829926 317.965179,92.005981 
	C317.997314,92.003250 317.988281,92.067116 317.937744,91.755875 
	C317.482208,90.974472 317.077179,90.504318 316.802887,90.022583 
	C316.933624,90.010994 316.955048,90.272636 316.798157,90.034492 
	C316.362335,89.540138 316.083405,89.283928 315.530212,88.849503 
	C300.443848,69.683762 281.270081,59.319336 256.487305,59.099567 
	C252.403503,59.332333 248.739197,59.466698 245.124451,59.962429 
	C206.494461,65.260185 178.163925,104.168282 184.537735,142.650070 
	C187.460876,160.298477 195.863144,174.717957 208.274780,187.126068 
	C171.658340,209.109329 154.843369,241.589111 155.826935,283.842773 
	C155.335007,283.996277 154.843094,284.149780 154.351166,284.303314 
	C147.434952,277.172882 140.518753,270.042450 134.237366,263.566498 
	C127.269325,270.422089 120.332298,277.247131 113.277664,284.187927 
	C131.984360,302.918671 150.903183,321.865814 169.843506,340.791473 
	C170.150558,341.098297 170.720123,341.142365 171.241318,341.599854 
	C172.228073,343.421661 173.140717,344.952606 173.592346,346.588440 
	C154.203598,346.727753 135.275864,346.761597 116.348129,346.797546 
	C114.016830,346.802002 111.557541,346.428711 111.642090,350.104706 
	C111.848030,359.059387 111.906639,368.017456 112.200958,377.255035 
	C113.750313,378.980957 115.092438,380.456848 116.500763,381.866608 
	C158.447906,423.856903 200.404617,465.837555 242.343216,507.836365 
	C243.978851,509.474335 245.451431,511.275116 247.000000,513.000000 
	C239.979050,513.000000 232.958099,513.000000 225.805054,512.660522 
	C224.832092,511.884216 224.029541,511.181824 223.144058,511.054016 
	C217.816544,510.285156 212.395462,510.004852 207.142303,508.907227 
	C179.058243,503.039062 152.316315,493.363312 127.583458,478.792053 
	C102.536293,464.035614 80.645988,445.389771 61.662243,423.273895 
	C49.631512,409.258240 39.143902,394.197083 30.565811,377.939697 
	C16.161530,350.640442 6.240776,321.791931 2.915814,290.900665 
	C2.841086,290.206390 1.663270,289.630890 1.000003,289.000000 
z"/>
<path fill="#4353CE" opacity="1.000000" stroke="none" 
	d="
M366.149597,131.801788 
	C367.726562,133.275391 369.348389,134.704102 370.873962,136.229141 
	C416.272705,181.611740 461.657867,227.007935 507.069122,272.378021 
	C508.697571,274.005005 510.568787,275.389069 512.663452,276.943176 
	C513.000000,280.692902 513.000000,284.385834 512.587830,288.410034 
	C511.800507,289.419342 511.231201,290.056549 511.078857,290.781433 
	C508.173828,304.603149 506.074402,318.647095 502.273132,332.214996 
	C496.672821,352.204498 487.887756,370.901855 477.214752,388.814056 
	C460.812561,416.341400 439.749115,439.696777 414.821655,459.475891 
	C395.846252,474.532227 374.959381,486.679871 352.234070,495.411377 
	C332.569824,502.966736 312.488251,508.895142 291.437195,511.114136 
	C290.568207,511.205750 289.809875,512.347534 289.000000,513.000000 
	C275.312439,513.000000 261.624878,513.000000 247.468658,513.000000 
	C245.451431,511.275116 243.978851,509.474335 242.343216,507.836365 
	C200.404617,465.837555 158.447906,423.856903 116.500763,381.866608 
	C115.092438,380.456848 113.750313,378.980957 112.665588,377.215088 
	C118.102615,376.872314 123.251373,376.834930 128.400162,376.830750 
	C171.252518,376.796021 214.104858,376.767395 257.420380,376.830811 
	C297.764282,376.924683 337.645020,376.924683 378.439667,376.924683 
	C370.814453,384.427765 363.895630,391.235779 357.356659,397.670013 
	C364.907623,405.330017 371.753845,412.275146 378.145844,418.759491 
	C397.116516,399.786621 416.373932,380.526978 435.084259,361.814453 
	C416.188507,342.916656 396.939209,323.665253 378.155029,304.879028 
	C371.669373,311.328888 364.780121,318.180145 357.103149,325.814758 
	C363.801300,332.312836 370.798431,339.100983 378.415070,346.490143 
	C361.434479,346.490143 345.213409,346.490143 329.216370,346.279480 
	C358.923920,314.093903 366.238251,271.056793 348.624969,233.188217 
	C331.374207,196.099060 293.006653,172.775406 251.628510,174.331116 
	C226.492813,171.207123 209.491196,147.368210 214.752701,123.049095 
	C219.075485,103.068817 234.435654,90.609756 257.342957,88.928352 
	C277.348145,90.520889 290.722229,100.303139 297.297455,118.940567 
	C297.897888,120.642471 297.488190,122.700722 297.573181,124.559212 
	C297.598755,124.524925 297.570801,124.604431 297.452240,124.282333 
	C292.865814,119.522896 288.397949,115.085564 284.285736,111.001427 
	C277.159271,118.117004 270.263885,125.001877 263.129852,132.125031 
	C271.447754,140.420151 280.056702,148.992477 288.650757,157.579712 
	C297.203979,166.126099 305.742279,174.687424 314.765778,183.721405 
	C332.177307,166.128311 349.163452,148.965057 366.149597,131.801788 
z"/>
<path fill="#000000" opacity="0.000000" stroke="none" 
	d="
M513.000000,224.531342 
	C512.336731,224.371887 511.154297,223.795532 511.085785,223.108124 
	C509.239563,204.589355 504.320068,186.843338 498.126251,169.361252 
	C489.495575,145.001053 477.533081,122.382202 461.452606,102.246330 
	C451.292480,89.523903 440.115936,77.477753 428.376495,66.187576 
	C414.871765,53.199642 399.339172,42.681488 382.977020,33.417297 
	C366.973022,24.355923 350.354156,16.707573 332.586670,12.039675 
	C318.831665,8.425948 304.771301,5.977161 290.858063,2.957913 
	C289.964081,2.763909 289.168365,2.116931 288.663452,1.340333 
	C363.593719,1.000000 438.187408,1.000000 513.000000,1.000000 
	C513.000000,75.354088 513.000000,149.708389 513.000000,224.531342 
z"/>
<path fill="#000000" opacity="0.000000" stroke="none" 
	d="
M1.000003,289.468658 
	C1.663270,289.630890 2.841086,290.206390 2.915814,290.900665 
	C6.240776,321.791931 16.161530,350.640442 30.565811,377.939697 
	C39.143902,394.197083 49.631512,409.258240 61.662243,423.273895 
	C80.645988,445.389771 102.536293,464.035614 127.583458,478.792053 
	C152.316315,493.363312 179.058243,503.039062 207.142303,508.907227 
	C212.395462,510.004852 217.816544,510.285156 223.144058,511.054016 
	C224.029541,511.181824 224.832092,511.884216 225.336487,512.660522 
	C150.406296,513.000000 75.812599,513.000000 1.000000,513.000000 
	C1.000000,438.645905 1.000000,364.291626 1.000003,289.468658 
z"/>
<path fill="#000000" opacity="0.000000" stroke="none" 
	d="
M289.468658,513.000000 
	C289.809875,512.347534 290.568207,511.205750 291.437195,511.114136 
	C312.488251,508.895142 332.569824,502.966736 352.234070,495.411377 
	C374.959381,486.679871 395.846252,474.532227 414.821655,459.475891 
	C439.749115,439.696777 460.812561,416.341400 477.214752,388.814056 
	C487.887756,370.901855 496.672821,352.204498 502.273132,332.214996 
	C506.074402,318.647095 508.173828,304.603149 511.078857,290.781433 
	C511.231201,290.056549 511.800507,289.419342 512.587830,288.870667 
	C513.000000,363.593719 513.000000,438.187408 513.000000,513.000000 
	C438.645905,513.000000 364.291626,513.000000 289.468658,513.000000 
z"/>
<path fill="#000000" opacity="0.000000" stroke="none" 
	d="
M224.531342,1.000004 
	C224.369141,1.663303 223.794861,2.839396 223.099258,2.916157 
	C192.232834,6.322340 163.346085,16.119381 136.056076,30.563745 
	C119.809456,39.162937 104.741493,49.634586 90.724854,61.663136 
	C68.604408,80.646065 49.903816,102.509567 35.219498,127.599083 
	C20.390236,152.936249 10.197515,180.157013 4.967886,209.146729 
	C4.028780,214.352524 2.774729,219.501526 1.333047,224.338379 
	C1.000000,149.739456 1.000000,75.478920 1.000000,1.000000 
	C75.354088,1.000000 149.708389,1.000000 224.531342,1.000004 
z"/>
<path fill="#4354CD" opacity="1.000000" stroke="none" 
	d="
M174.053345,346.483582 
	C173.140717,344.952606 172.228073,343.421661 171.522278,341.423706 
	C190.684265,321.661987 209.639435,302.367249 227.750046,283.932220 
	C221.117920,277.276001 214.252563,270.385712 206.413971,262.518646 
	C200.104034,269.227844 193.354523,276.404449 186.199982,284.011688 
	C185.533905,273.104401 186.466400,263.158905 189.585938,253.362640 
	C197.081558,229.824051 221.161652,204.870056 257.419373,204.836761 
	C291.072815,204.088959 326.269592,231.364487 327.881165,272.728912 
	C329.389526,311.444122 300.687622,343.345398 261.895050,346.431366 
	C259.986145,346.551514 258.470306,346.693420 256.489502,346.804993 
	C246.859436,346.776794 237.694199,346.812103 228.529266,346.774048 
	C210.370529,346.698669 192.211975,346.582764 174.053345,346.483582 
z"/>
<path fill="#FECD02" opacity="1.000000" stroke="none" 
	d="
M256.967407,204.741180 
	C221.161652,204.870056 197.081558,229.824051 189.585938,253.362640 
	C186.466400,263.158905 185.533905,273.104401 186.199982,284.011688 
	C193.354523,276.404449 200.104034,269.227844 206.413971,262.518646 
	C214.252563,270.385712 221.117920,277.276001 227.750046,283.932220 
	C209.639435,302.367249 190.684265,321.661987 171.448151,341.132874 
	C170.720123,341.142365 170.150558,341.098297 169.843506,340.791473 
	C150.903183,321.865814 131.984360,302.918671 113.277664,284.187927 
	C120.332298,277.247131 127.269325,270.422089 134.237366,263.566498 
	C140.518753,270.042450 147.434952,277.172882 154.351166,284.303314 
	C154.843094,284.149780 155.335007,283.996277 155.826935,283.842773 
	C154.843369,241.589111 171.658340,209.109329 208.580582,187.044495 
	C222.609833,179.796783 236.723648,175.360611 252.360992,174.975067 
	C255.988724,174.849365 257.074188,176.445084 257.027435,179.542892 
	C256.900757,187.940720 256.973633,196.341537 256.967407,204.741180 
z"/>
<path fill="#FD6A17" opacity="1.000000" stroke="none" 
	d="
M297.547577,124.593498 
	C297.488190,122.700722 297.897888,120.642471 297.297455,118.940567 
	C290.722229,100.303139 277.348145,90.520889 257.352081,88.470032 
	C256.941681,78.337471 256.935760,68.753212 256.929810,59.168945 
	C281.270081,59.319336 300.443848,69.683762 315.621368,89.144386 
	C316.309570,89.835861 316.632294,90.054253 316.955048,90.272636 
	C316.955048,90.272636 316.933624,90.010994 316.850067,90.343773 
	C317.173767,91.140076 317.581024,91.603600 317.988281,92.067123 
	C317.988281,92.067116 317.997314,92.003250 318.022461,92.356857 
	C324.329529,102.662346 327.857849,113.620934 329.381470,126.211029 
	C333.791595,121.591049 337.417816,117.792297 341.044006,113.993546 
	C342.310364,112.956909 343.576691,111.920265 345.032898,110.728218 
	C352.011047,117.577019 358.951965,124.389244 366.021240,131.501617 
	C349.163452,148.965057 332.177307,166.128311 314.765778,183.721405 
	C305.742279,174.687424 297.203979,166.126099 288.650757,157.579712 
	C280.056702,148.992477 271.447754,140.420151 263.129852,132.125031 
	C270.263885,125.001877 277.159271,118.117004 284.285736,111.001427 
	C288.397949,115.085564 292.865814,119.522896 297.612976,124.155243 
	C297.997192,124.333290 298.102112,124.316307 298.207062,124.299332 
	C297.987244,124.397385 297.767395,124.495445 297.547577,124.593498 
z"/>
<path fill="#FE9502" opacity="1.000000" stroke="none" 
	d="
M256.487305,59.099567 
	C256.935760,68.753212 256.941681,78.337471 256.938477,88.380058 
	C234.435654,90.609756 219.075485,103.068817 214.752701,123.049095 
	C209.491196,147.368210 226.492813,171.207123 251.602615,174.443146 
	C251.975281,174.690369 251.943222,174.917953 251.943222,174.917953 
	C236.723648,175.360611 222.609833,179.796783 208.888474,186.836334 
	C195.863144,174.717957 187.460876,160.298477 184.537735,142.650070 
	C178.163925,104.168282 206.494461,65.260185 245.124451,59.962429 
	C248.739197,59.466698 252.403503,59.332333 256.487305,59.099567 
z"/>
<path fill="#FFFFFF" opacity="1.000000" stroke="none" 
	d="
M173.592346,346.588440 
	C192.211975,346.582764 210.370529,346.698669 228.529266,346.774048 
	C237.694199,346.812103 246.859436,346.776794 256.496704,347.284271 
	C256.964996,357.441589 256.961090,367.089233 256.957214,376.736908 
	C214.104858,376.767395 171.252518,376.796021 128.400162,376.830750 
	C123.251373,376.834930 118.102615,376.872314 112.489212,376.934235 
	C111.906639,368.017456 111.848030,359.059387 111.642090,350.104706 
	C111.557541,346.428711 114.016830,346.802002 116.348129,346.797546 
	C135.275864,346.761597 154.203598,346.727753 173.592346,346.588440 
z"/>
<path fill="#4955CB" opacity="1.000000" stroke="none" 
	d="
M340.848785,113.724190 
	C337.417816,117.792297 333.791595,121.591049 329.381470,126.211029 
	C327.857849,113.620934 324.329529,102.662346 317.990295,92.359589 
	C320.238251,93.829926 322.718994,95.470566 324.814301,97.507645 
	C330.185425,102.729401 335.385254,108.127342 340.848785,113.724190 
z"/>
<path fill="#4955CB" opacity="1.000000" stroke="none" 
	d="
M317.937744,91.755875 
	C317.581024,91.603600 317.173767,91.140076 316.719330,90.355362 
	C317.077179,90.504318 317.482208,90.974472 317.937744,91.755875 
z"/>
<path fill="#4955CB" opacity="1.000000" stroke="none" 
	d="
M316.798157,90.034492 
	C316.632294,90.054253 316.309570,89.835861 315.895630,89.322586 
	C316.083405,89.283928 316.362335,89.540138 316.798157,90.034492 
z"/>
<path fill="#E7EBF5" opacity="1.000000" stroke="none" 
	d="
M257.420349,376.830811 
	C256.961090,367.089233 256.964996,357.441589 256.961670,347.314636 
	C258.470306,346.693420 259.986145,346.551514 262.282990,346.419891 
	C285.040100,346.450165 307.016235,346.470154 328.992340,346.490143 
	C345.213409,346.490143 361.434479,346.490143 378.415070,346.490143 
	C370.798431,339.100983 363.801300,332.312836 357.103149,325.814758 
	C364.780121,318.180145 371.669373,311.328888 378.155029,304.879028 
	C396.939209,323.665253 416.188507,342.916656 435.084259,361.814453 
	C416.373932,380.526978 397.116516,399.786621 378.145844,418.759491 
	C371.753845,412.275146 364.907623,405.330017 357.356659,397.670013 
	C363.895630,391.235779 370.814453,384.427765 378.439667,376.924683 
	C337.645020,376.924683 297.764282,376.924683 257.420349,376.830811 
z"/>
<path fill="#FBB914" opacity="1.000000" stroke="none" 
	d="
M329.216370,346.279480 
	C307.016235,346.470154 285.040100,346.450165 262.676056,346.441650 
	C300.687622,343.345398 329.389526,311.444122 327.881165,272.728912 
	C326.269592,231.364487 291.072815,204.088959 257.419373,204.836761 
	C256.973633,196.341537 256.900757,187.940720 257.027435,179.542892 
	C257.074188,176.445084 255.988724,174.849365 252.360992,174.975067 
	C251.943222,174.917953 251.975281,174.690369 252.001160,174.578354 
	C293.006653,172.775406 331.374207,196.099060 348.624969,233.188217 
	C366.238251,271.056793 358.923920,314.093903 329.216370,346.279480 
z"/>
<path fill="#4353CE" opacity="1.000000" stroke="none" 
	d="
M297.573181,124.559212 
	C297.767395,124.495445 297.987244,124.397385 298.207062,124.299332 
	C298.102112,124.316307 297.997192,124.333290 297.731506,124.477348 
	C297.570801,124.604431 297.598755,124.524925 297.573181,124.559212 
z"/>
</svg>