<svg version="1.1" id="Layer_1" xmlns="http://www.w3.org/2000/svg" xmlns:xlink="http://www.w3.org/1999/xlink" x="0px" y="0px"
	 width="40" height="40" viewBox="0 0 254 252" enable-background="new 0 0 254 252" xml:space="preserve">
<path fill="#A0D3A4" opacity="1.000000" stroke="none" 
	d="
M1.000001,149.000000 
	C1.000000,134.645767 1.000000,120.291542 1.377192,105.719070 
	C2.149430,104.991890 2.846710,104.509956 2.894954,103.970016 
	C3.888154,92.854416 8.082399,82.709496 12.673820,72.768211 
	C20.688236,55.415508 32.223965,40.615646 47.529408,29.202835 
	C55.783806,23.047771 64.880676,17.906149 74.005440,13.078430 
	C79.462090,10.191433 85.627724,8.515114 91.621178,6.809386 
	C97.318115,5.188044 103.218842,4.292078 108.993767,2.924391 
	C109.770844,2.740355 110.336464,1.663450 111.000000,0.999997 
	C111.444443,1.000000 111.888893,1.000000 112.958580,1.290318 
	C117.389214,1.387091 121.194611,1.193546 125.000000,1.000000 
	C127.041664,1.000000 129.083328,1.000000 131.846283,1.291557 
	C136.045059,1.388743 139.522522,1.194371 143.000000,1.000000 
	C145.041672,1.000000 147.083328,1.000000 149.274689,1.334860 
	C150.814896,2.441077 152.120682,3.522616 153.610733,3.929694 
	C159.811935,5.623861 166.213959,6.688738 172.278915,8.756872 
	C194.246292,16.247686 212.139877,29.528984 226.965393,47.344555 
	C239.786774,62.751793 247.995605,80.207237 252.364197,99.646912 
	C252.788162,101.533440 254.100204,103.220398 255.000000,105.000000 
	C255.000000,119.354225 255.000000,133.708450 254.634857,148.249939 
	C253.846603,149.584976 253.375381,150.717606 253.008423,151.883057 
	C250.985519,158.307831 248.988068,164.740601 246.644592,171.094971 
	C243.277359,168.260971 240.052567,165.684326 237.267685,162.697510 
	C233.925903,159.113434 230.274063,156.328644 225.386887,155.253098 
	C223.038681,154.736328 220.784500,153.792282 218.509644,152.735657 
	C221.065109,150.179260 218.712204,149.744583 217.243912,149.328964 
	C213.119324,148.161469 208.813187,147.517761 204.828583,146.007889 
	C201.173935,144.623032 198.508163,145.261932 195.782410,148.037735 
	C194.890350,147.601242 194.334839,147.231903 193.747864,146.509384 
	C192.108154,144.801437 190.704483,142.879654 188.848969,142.210114 
	C185.003510,140.822525 180.834015,140.346710 176.957672,139.026474 
	C173.859924,137.971405 171.550568,138.175705 169.417618,141.080078 
	C163.710678,140.899551 160.734100,138.762177 161.916916,132.909851 
	C162.107254,131.967987 161.878845,130.941467 162.037140,129.637085 
	C163.140869,127.155731 164.681488,125.039070 164.849548,122.818527 
	C165.472656,114.585396 165.643417,106.318024 166.288910,97.905739 
	C174.023483,92.182297 173.596252,84.480789 172.545792,76.251030 
	C170.947021,76.128418 169.510162,76.018227 168.047775,75.480209 
	C168.207703,73.241768 168.258148,71.405182 168.600861,69.624840 
	C170.595856,59.260857 171.557068,48.915581 167.004074,38.967056 
	C166.222137,37.258469 164.206268,35.617695 162.393661,34.966675 
	C155.761459,32.584648 148.899597,30.839081 142.279892,28.426693 
	C139.371567,27.366831 136.988693,24.876980 134.085358,23.787804 
	C131.812866,22.935289 128.910004,22.529995 126.627670,23.159782 
	C118.634781,25.365339 110.727463,27.933310 102.923950,30.742296 
	C100.447777,31.633636 97.957375,33.327152 96.237045,35.314537 
	C91.578201,40.696609 87.329140,46.433392 82.720352,52.357849 
	C82.627045,54.754425 82.386871,56.912628 82.899796,58.873875 
	C84.397018,64.598740 86.194946,70.244965 87.467285,75.954414 
	C86.416031,76.401115 85.218269,76.806549 85.211472,77.231033 
	C85.096169,84.439651 82.936852,92.294151 91.007416,97.578316 
	C91.358269,105.374916 91.852501,112.735710 91.923622,120.100594 
	C91.959335,123.798691 92.359993,127.140556 95.098160,130.304977 
	C95.748840,136.225891 95.315857,140.950912 88.254898,141.555740 
	C87.746964,141.599258 87.304367,142.405609 86.459473,142.871414 
	C84.968376,143.289246 83.849197,143.692963 82.345314,144.065399 
	C74.642334,146.204895 67.300079,148.298447 60.010532,150.561752 
	C42.394745,156.031174 24.803555,161.579803 7.036734,166.733017 
	C5.578701,161.250366 4.346009,156.114639 2.931996,151.029343 
	C2.711183,150.235214 1.664692,149.670685 1.000001,149.000000 
z"/>
<path fill="#FFFFFE" opacity="1.000000" stroke="none" 
	d="
M7.202451,167.096527 
	C24.803555,161.579803 42.394745,156.031174 60.010532,150.561752 
	C67.300079,148.298447 74.642334,146.204895 82.452621,144.401428 
	C93.072899,158.327881 103.170631,171.910172 113.381020,185.407242 
	C114.308006,186.632629 115.837196,187.641953 117.297325,188.178711 
	C121.340134,189.664886 125.494370,190.847946 129.945190,192.338303 
	C136.475510,194.254822 142.665192,195.983871 149.167313,197.934052 
	C151.637543,198.782516 153.795349,199.409866 156.251373,200.244370 
	C162.996750,202.185654 169.443893,203.919785 176.057739,206.000214 
	C177.920532,206.957153 179.600220,207.618820 181.315369,208.170227 
	C192.596420,211.796997 203.885117,215.400024 215.029541,219.326508 
	C212.298889,221.889206 209.819214,224.278702 207.103226,226.359787 
	C190.817474,238.838364 172.796753,247.506851 152.462448,251.083328 
	C151.880600,251.185654 151.483337,252.337524 151.000000,253.000000 
	C135.979111,253.000000 120.958214,253.000000 105.767952,252.649902 
	C104.938797,251.871902 104.320000,251.160370 103.613136,251.058243 
	C91.056236,249.243958 79.347198,244.718796 68.259666,238.910019 
	C52.184738,230.488342 38.403748,219.015442 27.205667,204.654327 
	C18.367088,193.319183 11.288964,180.990173 7.202451,167.096527 
M97.170486,215.336594 
	C88.848854,198.983505 80.527222,182.630432 72.205597,166.277344 
	C71.271721,167.202209 71.082542,167.893936 71.299110,168.417984 
	C78.583603,186.044800 85.848549,203.680496 93.342735,221.218170 
	C93.898499,222.518753 96.034599,223.596008 97.617012,223.936890 
	C116.209244,227.942139 134.831223,231.810379 153.459442,235.646347 
	C156.057327,236.181320 158.730820,236.349091 162.553024,236.838364 
	C161.211060,235.683350 160.928146,235.251526 160.551987,235.143097 
	C141.936981,229.776825 123.303185,224.475296 104.704788,219.052322 
	C102.238968,218.333328 99.948708,217.012222 97.170486,215.336594 
M167.616486,236.971298 
	C166.598984,236.791534 165.581497,236.611786 164.563995,236.432037 
	C164.463837,236.806427 164.363678,237.180832 164.263519,237.555222 
	C165.764847,237.978394 167.266190,238.401566 168.767517,238.824738 
	C168.614136,238.231201 168.460739,237.637680 167.616486,236.971298 
M172.389908,239.202820 
	C172.785248,239.207245 173.180603,239.211670 173.575943,239.216080 
	C173.577209,239.052231 173.589554,238.746063 173.578125,238.745163 
	C173.184753,238.714493 172.789124,238.712692 172.389908,239.202820 
M70.568451,163.301605 
	C70.294388,163.013458 70.020317,162.725311 69.746262,162.437164 
	C69.628349,162.551483 69.400833,162.757767 69.408401,162.766785 
	C69.663445,163.070786 69.940865,163.356003 70.568451,163.301605 
z"/>
<path fill="#000000" opacity="0.000000" stroke="none" 
	d="
M110.531342,0.999997 
	C110.336464,1.663450 109.770844,2.740355 108.993767,2.924391 
	C103.218842,4.292078 97.318115,5.188044 91.621178,6.809386 
	C85.627724,8.515114 79.462090,10.191433 74.005440,13.078430 
	C64.880676,17.906149 55.783806,23.047771 47.529408,29.202835 
	C32.223965,40.615646 20.688236,55.415508 12.673820,72.768211 
	C8.082399,82.709496 3.888154,92.854416 2.894954,103.970016 
	C2.846710,104.509956 2.149430,104.991890 1.377192,105.250412 
	C1.000000,70.404335 1.000000,35.808674 1.000000,1.000000 
	C37.353951,1.000000 73.708313,1.000000 110.531342,0.999997 
z"/>
<path fill="#000000" opacity="0.000000" stroke="none" 
	d="
M255.000000,104.531342 
	C254.100204,103.220398 252.788162,101.533440 252.364197,99.646912 
	C247.995605,80.207237 239.786774,62.751793 226.965393,47.344555 
	C212.139877,29.528984 194.246292,16.247686 172.278915,8.756872 
	C166.213959,6.688738 159.811935,5.623861 153.610733,3.929694 
	C152.120682,3.522616 150.814896,2.441077 149.712189,1.334860 
	C184.926590,1.000000 219.853180,1.000000 255.000000,1.000000 
	C255.000000,35.353912 255.000000,69.708298 255.000000,104.531342 
z"/>
<path fill="#000000" opacity="0.000000" stroke="none" 
	d="
M151.468658,253.000000 
	C151.483337,252.337524 151.880600,251.185654 152.462448,251.083328 
	C172.796753,247.506851 190.817474,238.838364 207.103226,226.359787 
	C209.819214,224.278702 212.298889,221.889206 215.339340,219.219299 
	C221.866730,211.691757 228.738495,205.105835 233.799530,197.339874 
	C239.099579,189.207199 242.660706,179.941254 246.981888,171.170639 
	C248.988068,164.740601 250.985519,158.307831 253.008423,151.883057 
	C253.375381,150.717606 253.846603,149.584976 254.634857,148.718597 
	C255.000000,183.593597 255.000000,218.187210 255.000000,253.000000 
	C220.646088,253.000000 186.291702,253.000000 151.468658,253.000000 
z"/>
<path fill="#000000" opacity="0.000000" stroke="none" 
	d="
M7.036735,166.733017 
	C11.288964,180.990173 18.367088,193.319183 27.205667,204.654327 
	C38.403748,219.015442 52.184738,230.488342 68.259666,238.910019 
	C79.347198,244.718796 91.056236,249.243958 103.613136,251.058243 
	C104.320000,251.160370 104.938797,251.871902 105.299294,252.649902 
	C70.406395,253.000000 35.812786,253.000000 1.000000,253.000000 
	C1.000000,218.646088 1.000000,184.291702 1.000001,149.468658 
	C1.664692,149.670685 2.711183,150.235214 2.931996,151.029343 
	C4.346009,156.114639 5.578701,161.250366 7.036735,166.733017 
z"/>
<path fill="#B5DDB8" opacity="1.000000" stroke="none" 
	d="
M124.539368,1.000000 
	C121.194611,1.193546 117.389214,1.387091 113.291916,1.290318 
	C116.692909,1.000000 120.385818,1.000000 124.539368,1.000000 
z"/>
<path fill="#B5DDB8" opacity="1.000000" stroke="none" 
	d="
M142.541931,1.000000 
	C139.522522,1.194371 136.045059,1.388743 132.283783,1.291557 
	C135.361282,1.000000 138.722580,1.000000 142.541931,1.000000 
z"/>
<path fill="#FDFDFC" opacity="1.000000" stroke="none" 
	d="
M165.984116,98.063515 
	C165.643417,106.318024 165.472656,114.585396 164.849548,122.818527 
	C164.681488,125.039070 163.140869,127.155731 161.739136,129.768692 
	C154.389984,135.110565 149.065659,143.091675 138.455627,141.257660 
	C135.015961,141.194687 132.017334,141.192749 129.015335,140.737946 
	C130.039139,134.752533 127.954498,132.201508 122.234016,130.715256 
	C114.430588,128.687851 106.964485,125.288078 99.478027,122.177582 
	C97.991707,121.560036 96.411713,119.764755 96.004105,118.215492 
	C94.747566,113.439613 93.453682,108.543526 93.255913,103.650429 
	C92.978355,96.783318 93.673523,89.876892 94.128326,83.322678 
	C97.242470,92.810486 100.180939,101.962898 103.119415,111.115318 
	C103.750557,111.085281 104.381706,111.055244 105.012848,111.025208 
	C105.917831,107.311371 107.505714,103.609146 107.569046,99.881020 
	C107.666031,94.171722 110.616837,91.782204 115.581017,91.012718 
	C117.422295,90.727303 119.378082,90.950172 121.253975,91.173607 
	C123.935669,91.493034 126.591934,92.025948 129.413086,92.477310 
	C129.567123,92.486938 129.724258,92.221283 130.109924,92.248703 
	C130.996689,92.174789 131.497787,92.073463 132.380707,91.987350 
	C133.405121,91.860847 134.079651,91.801003 134.685410,91.564804 
	C141.270813,88.996849 146.679871,91.863174 148.183502,98.639915 
	C148.933441,102.019852 149.821838,105.374321 150.806274,108.693245 
	C151.050720,109.517418 152.102264,110.848427 152.452545,110.751602 
	C153.409088,110.487190 154.703461,109.744247 154.961151,108.911469 
	C158.031677,98.988319 160.937546,89.014221 164.196045,78.783875 
	C165.852570,70.190300 163.286026,67.008690 155.213165,67.011101 
	C148.783493,67.013023 142.353836,67.026474 135.668640,66.746185 
	C134.161316,63.455688 135.936569,63.120155 138.270096,63.118366 
	C144.851883,63.113312 151.433609,63.048378 158.443817,63.009491 
	C160.468063,62.909889 162.063858,62.807838 163.564407,62.711880 
	C163.990997,58.612911 159.626938,46.974567 156.302078,46.224579 
	C150.400650,44.893394 144.117920,45.252621 137.634628,44.873669 
	C135.494766,44.257706 133.714981,43.672703 132.067505,42.767830 
	C131.832779,41.685509 131.337143,40.221237 131.117233,40.261539 
	C121.444435,42.034275 111.728439,43.655697 102.167992,45.927917 
	C95.636726,47.480198 89.326569,49.962814 82.917557,52.029488 
	C87.329140,46.433392 91.578201,40.696609 96.237045,35.314537 
	C97.957375,33.327152 100.447777,31.633636 102.923950,30.742296 
	C110.727463,27.933310 118.634781,25.365339 126.627670,23.159782 
	C128.910004,22.529995 131.812866,22.935289 134.085358,23.787804 
	C136.988693,24.876980 139.371567,27.366831 142.279892,28.426693 
	C148.899597,30.839081 155.761459,32.584648 162.393661,34.966675 
	C164.206268,35.617695 166.222137,37.258469 167.004074,38.967056 
	C171.557068,48.915581 170.595856,59.260857 168.600861,69.624840 
	C168.258148,71.405182 168.207703,73.241768 167.975128,75.894859 
	C167.280045,83.846069 166.632080,90.954788 165.984116,98.063515 
M142.849091,100.174324 
	C133.240479,94.572830 123.486313,95.626114 113.696541,99.597778 
	C113.450928,99.697426 113.485291,100.487175 113.200645,101.818542 
	C113.200645,104.066299 113.200645,106.314064 113.200645,109.052223 
	C118.948448,107.790398 123.940186,106.694557 129.732544,105.862961 
	C133.969254,106.784111 138.205978,107.705254 142.811218,108.706528 
	C142.811218,105.770546 142.811218,103.351791 142.849091,100.174324 
z"/>
<path fill="#E8BB8E" opacity="1.000000" stroke="none" 
	d="
M246.644592,171.094971 
	C242.660706,179.941254 239.099579,189.207199 233.799530,197.339874 
	C228.738495,205.105835 221.866730,211.691757 215.481125,218.903595 
	C203.885117,215.400024 192.596420,211.796997 181.315369,208.170227 
	C179.600220,207.618820 177.920532,206.957153 176.053116,205.664597 
	C176.572601,203.859665 177.153091,202.648270 177.971024,201.627060 
	C187.787903,189.370193 197.566559,177.081345 207.523270,164.938660 
	C210.937073,160.775391 214.819458,156.996338 218.487762,153.041748 
	C220.784500,153.792282 223.038681,154.736328 225.386887,155.253098 
	C230.274063,156.328644 233.925903,159.113434 237.267685,162.697510 
	C240.052567,165.684326 243.277359,168.260971 246.644592,171.094971 
z"/>
<path fill="#E7BB8F" opacity="1.000000" stroke="none" 
	d="
M138.896698,141.318665 
	C149.065659,143.091675 154.389984,135.110565 161.545990,130.085693 
	C161.878845,130.941467 162.107254,131.967987 161.916916,132.909851 
	C160.734100,138.762177 163.710678,140.899551 169.312119,141.376328 
	C160.971695,152.169083 152.220734,162.542877 143.739029,173.132339 
	C138.804459,179.293167 134.301636,185.799789 129.604553,192.150833 
	C125.494370,190.847946 121.340134,189.664886 117.297325,188.178711 
	C115.837196,187.641953 114.308006,186.632629 113.381020,185.407242 
	C103.170631,171.910172 93.072899,158.327881 82.837318,144.432678 
	C83.849197,143.692963 84.968376,143.289246 86.690826,143.163925 
	C93.881744,146.484604 100.397339,149.702362 107.103432,152.456253 
	C108.977318,153.225769 111.626450,153.229645 113.553680,152.548462 
	C121.013229,149.911896 128.347153,146.911118 135.669785,143.904602 
	C136.893112,143.402328 137.828339,142.198380 138.896698,141.318665 
z"/>
<path fill="#9B6246" opacity="1.000000" stroke="none" 
	d="
M129.945190,192.338303 
	C134.301636,185.799789 138.804459,179.293167 143.739029,173.132339 
	C152.220734,162.542877 160.971695,152.169083 169.715118,141.408508 
	C171.550568,138.175705 173.859924,137.971405 176.957672,139.026474 
	C180.834015,140.346710 185.003510,140.822525 188.848969,142.210114 
	C190.704483,142.879654 192.108154,144.801437 193.373077,146.561615 
	C190.985413,148.058212 188.631424,148.810303 186.973358,150.324463 
	C184.789810,152.318512 183.152924,154.911255 181.281326,157.246857 
	C170.472458,170.735489 159.663681,184.224228 148.854874,197.712921 
	C142.665192,195.983871 136.475510,194.254822 129.945190,192.338303 
z"/>
<path fill="#9B6246" opacity="1.000000" stroke="none" 
	d="
M218.509659,152.735672 
	C214.819458,156.996338 210.937073,160.775391 207.523270,164.938660 
	C197.566559,177.081345 187.787903,189.370193 177.971024,201.627060 
	C177.153091,202.648270 176.572601,203.859665 175.886414,205.318298 
	C169.443893,203.919785 162.996750,202.185654 156.394775,199.936127 
	C162.485031,191.481491 168.769119,183.572556 174.964966,175.595078 
	C182.057190,166.463455 189.071030,157.270950 196.118927,148.104904 
	C198.508163,145.261932 201.173935,144.623032 204.828583,146.007889 
	C208.813187,147.517761 213.119324,148.161469 217.243912,149.328964 
	C218.712204,149.744583 221.065109,150.179260 218.509659,152.735672 
z"/>
<path fill="#E5E9F0" opacity="1.000000" stroke="none" 
	d="
M93.952652,82.987282 
	C93.673523,89.876892 92.978355,96.783318 93.255913,103.650429 
	C93.453682,108.543526 94.747566,113.439613 96.004105,118.215492 
	C96.411713,119.764755 97.991707,121.560036 99.478027,122.177582 
	C106.964485,125.288078 114.430588,128.687851 122.234016,130.715256 
	C127.954498,132.201508 130.039139,134.752533 128.679153,140.959930 
	C125.557198,141.707275 122.767921,141.843872 119.978889,141.839203 
	C113.749962,141.828781 108.076591,140.486969 103.372993,135.882736 
	C100.960007,133.520721 97.890327,131.829590 95.117416,129.835266 
	C92.359993,127.140556 91.959335,123.798691 91.923622,120.100594 
	C91.852501,112.735710 91.358269,105.374916 91.039963,97.101257 
	C89.985725,89.434067 88.930359,82.678040 87.875000,75.922012 
	C86.194946,70.244965 84.397018,64.598740 82.899796,58.873875 
	C82.386871,56.912628 82.627045,54.754425 82.720352,52.357849 
	C89.326569,49.962814 95.636726,47.480198 102.167992,45.927917 
	C111.728439,43.655697 121.444435,42.034275 131.117233,40.261539 
	C131.337143,40.221237 131.832779,41.685509 131.746628,42.759018 
	C130.505020,43.287518 129.716583,43.504959 128.539169,43.773773 
	C120.446938,46.822014 112.862953,50.195454 104.999390,52.686214 
	C99.561707,54.408585 97.091103,57.560463 96.570648,63.001244 
	C95.643379,63.004330 95.079277,62.853588 94.656242,63.033871 
	C93.448219,63.548691 92.297554,64.198074 91.124321,64.794525 
	C92.329277,65.533005 93.486618,66.793427 94.748451,66.908539 
	C98.052261,67.209953 101.405777,66.906525 104.732040,67.035667 
	C110.143822,67.245758 115.549667,67.608376 120.814209,68.258362 
	C118.821632,69.427368 117.007812,70.838120 115.117493,70.949394 
	C109.685921,71.269089 104.218842,70.943542 98.776398,71.151299 
	C97.479912,71.200783 96.225105,72.342194 94.706261,73.251915 
	C94.291809,76.677399 94.122231,79.832336 93.952652,82.987282 
z"/>
<path fill="#CF9C71" opacity="1.000000" stroke="none" 
	d="
M95.098160,130.304977 
	C97.890327,131.829590 100.960007,133.520721 103.372993,135.882736 
	C108.076591,140.486969 113.749962,141.828781 119.978889,141.839203 
	C122.767921,141.843872 125.557198,141.707275 128.682541,141.412796 
	C132.017334,141.192749 135.015961,141.194687 138.455627,141.257645 
	C137.828339,142.198380 136.893112,143.402328 135.669785,143.904602 
	C128.347153,146.911118 121.013229,149.911896 113.553680,152.548462 
	C111.626450,153.229645 108.977318,153.225769 107.103432,152.456253 
	C100.397339,149.702362 93.881744,146.484604 87.062744,143.149796 
	C87.304367,142.405609 87.746964,141.599258 88.254898,141.555740 
	C95.315857,140.950912 95.748840,136.225891 95.098160,130.304977 
z"/>
<path fill="#E3B58A" opacity="1.000000" stroke="none" 
	d="
M195.782410,148.037735 
	C189.071030,157.270950 182.057190,166.463455 174.964966,175.595078 
	C168.769119,183.572556 162.485031,191.481491 156.096527,199.728973 
	C153.795349,199.409866 151.637543,198.782516 149.167313,197.934052 
	C159.663681,184.224228 170.472458,170.735489 181.281326,157.246857 
	C183.152924,154.911255 184.789810,152.318512 186.973358,150.324463 
	C188.631424,148.810303 190.985413,148.058212 193.404510,146.914795 
	C194.334839,147.231903 194.890350,147.601242 195.782410,148.037735 
z"/>
<path fill="#E4BE92" opacity="1.000000" stroke="none" 
	d="
M166.288910,97.905739 
	C166.632080,90.954788 167.280045,83.846069 168.000641,76.322693 
	C169.510162,76.018227 170.947021,76.128418 172.545792,76.251030 
	C173.596252,84.480789 174.023483,92.182297 166.288910,97.905739 
z"/>
<path fill="#E6BE93" opacity="1.000000" stroke="none" 
	d="
M87.467285,75.954414 
	C88.930359,82.678040 89.985725,89.434067 91.008545,96.667145 
	C82.936852,92.294151 85.096169,84.439651 85.211472,77.231033 
	C85.218269,76.806549 86.416031,76.401115 87.467285,75.954414 
z"/>
<path fill="#E7EBF3" opacity="1.000000" stroke="none" 
	d="
M97.373810,215.653290 
	C99.948708,217.012222 102.238968,218.333328 104.704788,219.052322 
	C123.303185,224.475296 141.936981,229.776825 160.551987,235.143097 
	C160.928146,235.251526 161.211060,235.683350 162.553024,236.838364 
	C158.730820,236.349091 156.057327,236.181320 153.459442,235.646347 
	C134.831223,231.810379 116.209244,227.942139 97.617012,223.936890 
	C96.034599,223.596008 93.898499,222.518753 93.342735,221.218170 
	C85.848549,203.680496 78.583603,186.044800 71.299110,168.417984 
	C71.082542,167.893936 71.271721,167.202209 72.205597,166.277344 
	C80.527222,182.630432 88.848854,198.983505 97.373810,215.653290 
z"/>
<path fill="#F0F2F7" opacity="1.000000" stroke="none" 
	d="
M167.961914,237.007721 
	C168.460739,237.637680 168.614136,238.231201 168.767517,238.824738 
	C167.266190,238.401566 165.764847,237.978394 164.263519,237.555222 
	C164.363678,237.180832 164.463837,236.806427 164.563995,236.432037 
	C165.581497,236.611786 166.598984,236.791534 167.961914,237.007721 
z"/>
<path fill="#F0F2F7" opacity="1.000000" stroke="none" 
	d="
M172.391876,238.954803 
	C172.789124,238.712692 173.184753,238.714493 173.578125,238.745163 
	C173.589554,238.746063 173.577209,239.052231 173.575943,239.216080 
	C173.180603,239.211670 172.785248,239.207245 172.391876,238.954803 
z"/>
<path fill="#E7EBF3" opacity="1.000000" stroke="none" 
	d="
M70.391739,163.472778 
	C69.940865,163.356003 69.663445,163.070786 69.408401,162.766785 
	C69.400833,162.757767 69.628349,162.551483 69.746262,162.437164 
	C70.020317,162.725311 70.294388,163.013458 70.391739,163.472778 
z"/>
<path fill="#E8BC90" opacity="1.000000" stroke="none" 
	d="
M128.928146,43.722404 
	C129.716583,43.504959 130.505020,43.287518 131.614319,43.078888 
	C133.714981,43.672703 135.494766,44.257706 137.963348,45.065575 
	C142.727890,46.533703 146.859924,47.626682 150.850647,49.101974 
	C152.367477,49.662712 154.212524,50.834145 154.771317,52.194237 
	C156.194443,55.658089 156.976654,59.385258 158.015350,63.007050 
	C151.433609,63.048378 144.851883,63.113312 138.270096,63.118366 
	C135.936569,63.120155 134.161316,63.455688 135.684692,67.022957 
	C135.983704,67.956581 136.011154,68.324806 136.019623,69.142410 
	C134.568375,78.561028 144.549088,72.510269 146.501389,77.408539 
	C146.748123,78.027557 149.836899,77.572006 151.601593,77.477295 
	C151.942535,77.458984 152.523865,76.805328 152.528900,76.438377 
	C152.575928,73.008514 155.334167,73.563004 157.372452,73.037178 
	C158.595703,72.721611 159.805450,72.353683 161.280945,72.247841 
	C162.322632,74.675415 163.104614,76.864449 163.886581,79.053482 
	C160.937546,89.014221 158.031677,98.988319 154.961151,108.911469 
	C154.703461,109.744247 153.409088,110.487190 152.452545,110.751602 
	C152.102264,110.848427 151.050720,109.517418 150.806274,108.693245 
	C149.821838,105.374321 148.933441,102.019852 148.183502,98.639915 
	C146.679871,91.863174 141.270813,88.996849 134.685410,91.564804 
	C134.079651,91.801003 133.405121,91.860847 132.205139,91.755386 
	C131.006592,91.745895 130.365433,91.983589 129.724258,92.221283 
	C129.724258,92.221283 129.567123,92.486938 129.337692,91.969917 
	C129.048218,75.542732 128.988174,59.632572 128.928146,43.722404 
z"/>
<path fill="#DEAE7E" opacity="1.000000" stroke="none" 
	d="
M128.539169,43.773777 
	C128.988174,59.632572 129.048218,75.542732 129.183655,91.960289 
	C126.591934,92.025948 123.935669,91.493034 121.253975,91.173607 
	C119.378082,90.950172 117.422295,90.727303 115.581017,91.012718 
	C110.616837,91.782204 107.666031,94.171722 107.569046,99.881020 
	C107.505714,103.609146 105.917831,107.311371 105.012848,111.025208 
	C104.381706,111.055244 103.750557,111.085281 103.119415,111.115318 
	C100.180939,101.962898 97.242470,92.810486 94.128326,83.322678 
	C94.122231,79.832336 94.291809,76.677399 95.148071,73.258591 
	C98.799110,73.669647 103.382568,73.410385 104.415108,75.199928 
	C107.179413,79.990891 109.652336,78.030342 112.814240,76.469810 
	C114.292229,75.740356 116.121033,75.252281 117.697685,75.439461 
	C118.271980,75.507629 118.662880,77.832787 118.972900,79.166473 
	C119.182426,80.067841 119.104324,81.036079 119.154877,81.974403 
	C119.551682,82.013191 119.948486,82.051979 120.345299,82.090767 
	C120.862976,77.279884 121.380661,72.469002 121.922455,67.305771 
	C122.165199,65.863602 122.383820,64.773781 122.739929,62.998581 
	C113.850540,62.998581 105.424393,62.998581 96.998238,62.998581 
	C97.091103,57.560463 99.561707,54.408585 104.999390,52.686214 
	C112.862953,50.195454 120.446938,46.822014 128.539169,43.773777 
z"/>
<path fill="#E9E8EB" opacity="1.000000" stroke="none" 
	d="
M158.443802,63.009495 
	C156.976654,59.385258 156.194443,55.658089 154.771317,52.194237 
	C154.212524,50.834145 152.367477,49.662712 150.850647,49.101974 
	C146.859924,47.626682 142.727890,46.533703 138.323425,45.096535 
	C144.117920,45.252621 150.400650,44.893394 156.302078,46.224579 
	C159.626938,46.974567 163.990997,58.612911 163.564407,62.711880 
	C162.063858,62.807838 160.468063,62.909889 158.443802,63.009495 
z"/>
<path fill="#E7E9EF" opacity="1.000000" stroke="none" 
	d="
M136.038589,68.693031 
	C136.011154,68.324806 135.983704,67.956581 135.940216,67.311584 
	C142.353836,67.026474 148.783493,67.013023 155.213165,67.011101 
	C163.286026,67.008690 165.852570,70.190300 164.196045,78.783875 
	C163.104614,76.864449 162.322632,74.675415 160.994629,71.938477 
	C154.885666,71.279747 149.304718,71.396652 143.767700,70.958405 
	C141.147964,70.751060 138.612335,69.481392 136.038589,68.693031 
z"/>
<path fill="#DEB184" opacity="1.000000" stroke="none" 
	d="
M128.931931,105.598709 
	C123.940186,106.694557 118.948448,107.790398 113.200645,109.052223 
	C113.200645,106.314064 113.200645,104.066299 113.683472,101.402100 
	C116.824577,100.650047 119.482864,100.314438 122.306892,100.286316 
	C124.659416,101.501076 126.846191,102.408363 129.029648,103.604156 
	C128.994858,104.461334 128.963394,105.030022 128.931931,105.598709 
z"/>
<path fill="#E8BE94" opacity="1.000000" stroke="none" 
	d="
M129.332245,105.730835 
	C128.963394,105.030022 128.994858,104.461334 129.381485,103.497345 
	C131.459015,102.059212 133.181381,101.016388 135.317612,99.977463 
	C138.091385,100.298592 140.451309,100.615814 142.811218,100.933037 
	C142.811218,103.351791 142.811218,105.770546 142.811218,108.706528 
	C138.205978,107.705254 133.969254,106.784111 129.332245,105.730835 
z"/>
<path fill="#D0A078" opacity="1.000000" stroke="none" 
	d="
M142.830154,100.553680 
	C140.451309,100.615814 138.091385,100.298592 135.031464,99.694099 
	C130.268005,99.597504 126.204582,99.788170 122.141151,99.978836 
	C119.482864,100.314438 116.824577,100.650047 113.777679,100.970367 
	C113.485291,100.487175 113.450928,99.697426 113.696541,99.597778 
	C123.486313,95.626114 133.240479,94.572830 142.830154,100.553680 
z"/>
<path fill="#DEAE7E" opacity="1.000000" stroke="none" 
	d="
M130.109924,92.248703 
	C130.365433,91.983589 131.006592,91.745895 131.823318,91.740158 
	C131.497787,92.073463 130.996689,92.174789 130.109924,92.248703 
z"/>
<path fill="#CA9870" opacity="1.000000" stroke="none" 
	d="
M121.898338,67.658119 
	C121.380661,72.469002 120.862976,77.279884 120.345299,82.090767 
	C119.948486,82.051979 119.551682,82.013191 119.154877,81.974403 
	C119.104324,81.036079 119.182426,80.067841 118.972900,79.166473 
	C118.662880,77.832787 118.271980,75.507629 117.697685,75.439461 
	C116.121033,75.252281 114.292229,75.740356 112.814240,76.469810 
	C109.652336,78.030342 107.179413,79.990891 104.415108,75.199928 
	C103.382568,73.410385 98.799110,73.669647 95.392944,72.988052 
	C96.225105,72.342194 97.479912,71.200783 98.776398,71.151299 
	C104.218842,70.943542 109.685921,71.269089 115.117493,70.949394 
	C117.007812,70.838120 118.821632,69.427368 121.053207,68.210953 
	C121.436012,67.811813 121.898338,67.658119 121.898338,67.658119 
z"/>
<path fill="#FBF6F2" opacity="1.000000" stroke="none" 
	d="
M121.922455,67.305771 
	C121.898338,67.658119 121.436012,67.811813 121.197021,67.859222 
	C115.549667,67.608376 110.143822,67.245758 104.732040,67.035667 
	C101.405777,66.906525 98.052261,67.209953 94.748451,66.908539 
	C93.486618,66.793427 92.329277,65.533005 91.124321,64.794525 
	C92.297554,64.198074 93.448219,63.548691 94.656242,63.033871 
	C95.079277,62.853588 95.643379,63.004330 96.570648,63.001244 
	C105.424393,62.998581 113.850540,62.998581 122.739929,62.998581 
	C122.383820,64.773781 122.165199,65.863602 121.922455,67.305771 
z"/>
<path fill="#C99872" opacity="1.000000" stroke="none" 
	d="
M136.019623,69.142410 
	C138.612335,69.481392 141.147964,70.751060 143.767700,70.958405 
	C149.304718,71.396652 154.885666,71.279747 160.734924,71.699936 
	C159.805450,72.353683 158.595703,72.721611 157.372452,73.037178 
	C155.334167,73.563004 152.575928,73.008514 152.528900,76.438377 
	C152.523865,76.805328 151.942535,77.458984 151.601593,77.477295 
	C149.836899,77.572006 146.748123,78.027557 146.501389,77.408539 
	C144.549088,72.510269 134.568375,78.561028 136.019623,69.142410 
z"/>
<path fill="#72533D" opacity="1.000000" stroke="none" 
	d="
M122.306892,100.286316 
	C126.204582,99.788170 130.268005,99.597504 134.617584,99.690201 
	C133.181381,101.016388 131.459015,102.059212 129.384811,103.208847 
	C126.846191,102.408363 124.659416,101.501076 122.306892,100.286316 
z"/>
</svg>