<svg version="1.1" id="Layer_1" xmlns="http://www.w3.org/2000/svg" xmlns:xlink="http://www.w3.org/1999/xlink" x="0px" y="0px"
	 width="40" height="40" role="img" viewBox="0 0 2048 2048" enable-background="new 0 0 2048 2048" xml:space="preserve">
<path fill="#36C5F0" opacity="1.000000" stroke="none" 
	d="
M684.000000,970.999573 
	C531.360046,970.999573 379.219940,971.123779 227.080338,970.894592 
	C196.690796,970.848816 167.226242,965.210754 139.228455,952.734070 
	C117.800636,943.185120 98.554184,930.589844 81.135323,914.820068 
	C62.140118,897.622986 47.190098,877.606689 35.401741,854.965698 
	C25.303291,835.570312 18.864664,815.090027 14.890432,793.639099 
	C11.734432,776.604736 11.124998,759.426208 12.212821,742.342224 
	C13.798855,717.434143 19.800476,693.388184 30.089308,670.494934 
	C38.736523,651.254517 49.892262,633.726318 63.662029,617.697388 
	C79.952614,598.734009 99.036430,583.383911 120.671654,571.042358 
	C141.534393,559.141418 163.957321,551.297241 187.486816,547.244690 
	C200.694931,544.969788 214.300034,544.144531 227.727875,544.130066 
	C407.862701,543.935791 587.997925,543.908386 768.132629,544.152527 
	C784.723145,544.174988 801.326599,546.734009 817.127869,552.106934 
	C830.868042,556.779175 844.510498,561.981384 857.645081,568.127075 
	C872.394409,575.028442 885.482727,584.701477 897.933289,595.298340 
	C915.080688,609.892578 929.556824,626.742004 941.219299,645.863220 
	C951.275085,662.349976 958.798218,680.023682 964.158447,698.712219 
	C971.037903,722.697266 973.413025,747.134888 971.726929,771.784241 
	C970.735229,786.282532 968.027100,800.862183 964.259766,814.914307 
	C960.730225,828.079651 955.683716,841.035889 949.690796,853.295227 
	C941.398804,870.257690 930.408936,885.574402 917.867981,899.872864 
	C905.320923,914.178406 890.856506,925.980469 875.124084,936.390015 
	C852.850586,951.127563 828.576111,961.180298 802.293152,965.911499 
	C791.068176,967.932007 779.637817,969.498596 768.258179,969.837585 
	C740.351990,970.668884 712.421021,970.666565 684.000000,970.999573 
z"/>
<path fill="#2EB67D" opacity="1.000000" stroke="none" 
	d="
M1506.000000,293.000000 
	C1506.000000,449.483978 1506.069458,605.468018 1505.932861,761.451843 
	C1505.909546,787.983704 1500.414551,813.630066 1490.328857,838.149353 
	C1480.106812,862.999817 1465.787842,885.178711 1447.046631,904.676086 
	C1429.052734,923.395935 1408.613159,938.558960 1385.353516,949.760010 
	C1366.134277,959.015259 1345.943237,965.671753 1324.575073,967.996704 
	C1313.778687,969.171448 1302.927246,971.017395 1292.132324,970.820923 
	C1250.748901,970.067993 1212.176880,959.470398 1177.112427,936.784363 
	C1161.035767,926.383118 1146.370972,914.365356 1133.811523,900.093018 
	C1109.583252,872.560608 1092.188721,841.219604 1085.039429,804.911926 
	C1082.608276,792.565247 1080.796143,779.971802 1080.187134,767.419067 
	C1079.164917,746.349548 1079.055054,725.222473 1079.044312,704.119385 
	C1078.963501,543.802551 1078.824341,383.485321 1079.152588,223.169128 
	C1079.215942,192.240143 1085.750244,162.432388 1098.839478,134.048492 
	C1111.419800,106.768051 1128.965454,83.307159 1151.198608,63.485199 
	C1177.474609,40.058853 1208.024902,24.134161 1242.376953,16.206211 
	C1254.144409,13.490488 1266.317383,12.371546 1278.363281,11.055908 
	C1307.484863,7.875310 1335.713135,12.715785 1363.171753,22.058094 
	C1387.119629,30.205919 1408.778442,42.592838 1428.398560,58.750454 
	C1454.576050,80.308075 1474.225342,106.655167 1488.062744,137.440186 
	C1495.264282,153.462006 1500.574951,170.175919 1502.860352,187.596420 
	C1504.572388,200.646622 1505.579834,213.852539 1505.869385,227.011826 
	C1506.349487,248.831619 1506.000000,270.669647 1506.000000,293.000000 
z"/>
<path fill="#ECB22E" opacity="1.000000" stroke="none" 
	d="
M1144.257080,1444.756226 
	C1124.620361,1425.554321 1109.187622,1403.769775 1098.087524,1379.063110 
	C1090.160645,1361.419556 1084.285034,1343.053955 1082.043701,1323.738647 
	C1080.758179,1312.661499 1079.058350,1301.513062 1079.181885,1290.415039 
	C1079.509277,1260.979858 1085.233521,1232.535522 1097.140991,1205.445190 
	C1106.309326,1184.586670 1118.543701,1165.855591 1133.589111,1148.679932 
	C1149.551270,1130.457520 1168.476562,1116.302734 1189.263062,1104.306763 
	C1207.530640,1093.764526 1227.182617,1086.620483 1247.692993,1082.348755 
	C1259.973999,1079.790649 1272.699707,1078.195312 1285.228516,1078.177490 
	C1467.862183,1077.918823 1650.496460,1077.942261 1833.130493,1078.067627 
	C1857.986572,1078.084717 1881.915161,1083.528198 1905.077515,1092.514526 
	C1926.326050,1100.758301 1945.616089,1112.380249 1963.145508,1126.771606 
	C1981.946167,1142.206665 1997.382446,1160.721558 2009.865845,1181.593262 
	C2023.323730,1204.094116 2032.667358,1228.331543 2036.690796,1254.187744 
	C2039.061890,1269.424683 2040.309937,1285.095215 2039.710327,1300.479004 
	C2038.613525,1328.625854 2032.124390,1355.809326 2019.920532,1381.401978 
	C2011.276978,1399.528564 2000.460449,1416.158325 1987.289429,1431.445679 
	C1972.750122,1448.321045 1955.891846,1462.303345 1937.072754,1473.825439 
	C1916.337158,1486.520996 1893.922607,1495.609497 1869.894775,1499.861450 
	C1857.832031,1501.996094 1845.511963,1503.811523 1833.305542,1503.828125 
	C1651.005127,1504.076538 1468.704224,1503.987549 1286.403442,1504.023193 
	C1271.568237,1504.026123 1257.108521,1501.703979 1242.685181,1498.408081 
	C1225.330566,1494.442139 1208.862183,1488.276123 1193.161865,1480.002319 
	C1178.420166,1472.233765 1164.633911,1463.043457 1152.277466,1451.793823 
	C1149.735107,1449.479126 1147.100830,1447.265503 1144.257080,1444.756226 
z"/>
<path fill="#E01E5A" opacity="1.000000" stroke="none" 
	d="
M972.000122,1801.000000 
	C972.000061,1811.498169 972.232971,1821.502686 971.955505,1831.493164 
	C971.184021,1859.276611 964.834045,1885.750977 953.494995,1911.162354 
	C945.378540,1929.351440 934.950562,1946.108276 922.078064,1961.089966 
	C912.991455,1971.665283 902.835938,1981.634033 891.833862,1990.166870 
	C880.039978,1999.313843 867.135315,2007.291992 853.924927,2014.287476 
	C834.199524,2024.733276 813.001404,2031.394531 790.708374,2033.980103 
	C780.269409,2035.190796 769.779358,2036.835571 759.321228,2036.775391 
	C747.516113,2036.707397 735.633789,2035.525024 723.942871,2033.773560 
	C708.616882,2031.477539 693.823425,2026.969116 679.356873,2021.227539 
	C659.413818,2013.312744 641.368958,2002.425415 624.549622,1989.174927 
	C607.425903,1975.684814 593.164124,1959.669189 581.178711,1941.615845 
	C565.768250,1918.402954 555.284729,1893.154297 549.847473,1865.699829 
	C546.843445,1850.531616 545.953308,1835.356201 545.958801,1819.982666 
	C546.023193,1641.015991 545.957703,1462.049194 546.048828,1283.082520 
	C546.061462,1258.234131 551.811890,1234.475708 560.852356,1211.388306 
	C568.425171,1192.048950 578.773560,1174.293945 591.618469,1158.148804 
	C603.734802,1142.919434 617.831787,1129.529175 633.664124,1118.048828 
	C652.209595,1104.601074 672.507324,1094.502075 694.226501,1087.587891 
	C705.354309,1084.045288 717.016113,1081.830444 728.602417,1080.179443 
	C739.349121,1078.647827 750.308289,1078.343750 761.188354,1078.064697 
	C786.403564,1077.417969 810.723083,1082.560425 834.221802,1091.206543 
	C855.658691,1099.093994 875.559814,1110.193970 893.137268,1124.808228 
	C911.437012,1140.022827 927.517029,1157.395142 940.006653,1177.883667 
	C953.551514,1200.103149 963.176575,1223.766724 968.107910,1249.398560 
	C970.892883,1263.874268 972.056458,1278.379150 972.049683,1293.094604 
	C971.971924,1462.229736 972.000122,1631.364868 972.000122,1801.000000 
z"/>
<path fill="#2EB67D" opacity="1.000000" stroke="none" 
	d="
M1610.973999,783.000000 
	C1611.317505,768.068420 1610.882446,753.566528 1612.178223,739.221008 
	C1614.381714,714.826538 1620.057129,691.194092 1630.537476,668.831604 
	C1638.301270,652.265869 1647.428101,636.531616 1659.141479,622.525513 
	C1674.460693,604.208069 1691.941528,588.244324 1712.498657,575.736328 
	C1734.692139,562.232788 1758.367554,552.885559 1783.879028,547.926331 
	C1799.845947,544.822449 1815.915771,543.463745 1832.114990,544.055115 
	C1856.699341,544.952759 1880.487427,549.890564 1903.474731,558.780273 
	C1924.631592,566.962158 1943.815186,578.525024 1961.219116,592.885376 
	C1981.378052,609.519043 1997.756104,629.428284 2010.723267,652.209778 
	C2022.422241,672.763489 2030.165161,694.733154 2034.729126,717.788574 
	C2038.243042,735.539429 2039.040283,753.661682 2037.845215,771.666565 
	C2035.995972,799.529114 2029.039185,826.303589 2016.646973,851.361938 
	C2007.743530,869.365295 1996.482544,885.855652 1982.863159,900.853271 
	C1963.776733,921.871338 1941.494995,938.360840 1915.965942,950.412720 
	C1897.265991,959.240784 1877.713013,965.926270 1856.997803,967.897461 
	C1840.413330,969.475586 1823.733032,970.773132 1807.088135,970.862488 
	C1743.939819,971.201599 1680.788452,970.998962 1617.638306,970.998962 
	C1615.657959,970.998962 1613.677612,970.998901 1610.973999,970.998901 
	C1610.973999,908.309998 1610.973999,845.904968 1610.973999,783.000000 
z"/>
<path fill="#ECB22E" opacity="1.000000" stroke="none" 
	d="
M1098.000488,1609.999756 
	C1165.984131,1609.999878 1233.468506,1609.850830 1300.951294,1610.106689 
	C1317.479004,1610.169312 1333.953491,1612.606323 1349.698120,1617.589844 
	C1363.829590,1622.062988 1377.788208,1627.467773 1391.161133,1633.848877 
	C1406.456665,1641.147705 1420.102295,1651.212036 1433.024048,1662.337158 
	C1447.719360,1674.989624 1460.187378,1689.467285 1470.894043,1705.480469 
	C1483.304810,1724.042603 1492.293579,1744.195068 1498.116577,1765.816528 
	C1501.645508,1778.920044 1503.917236,1792.122681 1505.140747,1805.648804 
	C1506.888916,1824.972656 1505.440308,1843.929810 1502.193970,1863.007202 
	C1497.344116,1891.508057 1486.133667,1917.362305 1470.720459,1941.422852 
	C1464.585938,1950.999023 1456.812378,1959.605103 1449.218750,1968.149536 
	C1435.378418,1983.723389 1419.214966,1996.583618 1401.291016,2007.215576 
	C1386.028198,2016.268799 1369.802734,2023.070435 1352.772949,2028.009399 
	C1335.104492,2033.133545 1317.146118,2035.656128 1298.692139,2036.188843 
	C1275.619629,2036.854858 1253.199463,2034.027222 1231.125854,2027.584106 
	C1205.896851,2020.220093 1182.827148,2008.350830 1162.119141,1992.424683 
	C1145.026489,1979.279053 1130.177246,1963.712891 1117.867920,1945.753052 
	C1103.142334,1924.268188 1092.070435,1901.256836 1085.912354,1875.905884 
	C1082.550903,1862.067627 1080.014648,1848.162354 1079.964355,1833.834351 
	C1079.707642,1760.592529 1079.332642,1687.350952 1078.999634,1614.109375 
	C1078.994385,1612.961060 1078.998901,1611.812744 1078.998901,1609.999756 
	C1085.310303,1609.999756 1091.405518,1609.999756 1098.000488,1609.999756 
z"/>
<path fill="#36C5F0" opacity="1.000000" stroke="none" 
	d="
M546.000000,219.003357 
	C545.676208,191.374710 551.848206,165.535690 562.131348,140.657455 
	C570.815430,119.648056 582.920959,100.727509 597.857239,83.478851 
	C615.664673,62.914433 636.662292,46.670776 660.641235,34.017849 
	C679.983887,23.811304 700.496704,16.730661 721.936646,13.318599 
	C737.308838,10.872195 753.150757,9.634578 768.681519,10.284544 
	C802.552429,11.702044 834.794617,20.507135 864.096313,37.849739 
	C876.753052,45.340801 888.348877,54.702065 900.064087,63.686619 
	C915.194153,75.290024 926.850159,90.208839 937.257202,105.941071 
	C952.590027,129.119629 963.377869,154.382278 967.920349,181.926682 
	C969.966736,194.335388 971.756042,206.958115 971.821960,219.493393 
	C972.191711,289.803436 972.000122,360.116425 972.000183,430.428406 
	C972.000183,432.407501 972.000244,434.386597 972.000244,437.000336 
	C969.832947,437.000336 967.904358,437.000305 965.975769,437.000305 
	C894.830688,437.000153 823.683105,437.341949 752.541992,436.810242 
	C728.361267,436.629547 704.830688,431.428894 682.090027,422.691589 
	C666.137390,416.562347 651.182251,408.742676 637.232605,399.007019 
	C622.377686,388.639435 609.033325,376.606262 597.146057,362.825104 
	C583.968811,347.548462 573.255432,330.817749 564.934326,312.523071 
	C557.408691,295.977203 552.003052,278.803772 548.844971,260.815369 
	C546.433472,247.078934 545.775696,233.353378 546.000000,219.003357 
z"/>
<path fill="#E01E5A" opacity="1.000000" stroke="none" 
	d="
M310.603241,1487.800659 
	C297.842987,1491.828003 285.600342,1496.418091 272.969025,1499.311523 
	C261.845123,1501.859619 250.307785,1503.515381 238.915070,1503.753784 
	C223.566299,1504.075195 207.966721,1504.009033 192.871826,1501.610474 
	C177.712616,1499.201660 162.771423,1494.496338 148.220444,1489.408447 
	C128.049942,1482.355347 109.866547,1471.297729 93.352989,1457.730957 
	C85.716026,1451.456665 78.153290,1444.946655 71.438881,1437.723511 
	C54.847748,1419.875366 41.341209,1399.952393 31.588001,1377.423462 
	C24.537867,1361.138062 19.555305,1344.327515 16.209639,1327.018066 
	C14.781113,1319.627319 14.450814,1311.989380 14.072259,1304.441040 
	C13.729115,1297.598755 14.059631,1290.724976 13.986700,1283.866211 
	C13.741252,1260.783569 18.701653,1238.651367 26.489325,1217.109009 
	C33.921322,1196.550659 44.150940,1177.453979 58.059444,1160.494019 
	C64.320412,1152.859253 70.455193,1145.008301 77.546753,1138.191162 
	C91.636559,1124.646851 107.271988,1113.125244 124.516052,1103.657715 
	C142.526031,1093.769775 161.502686,1086.645386 181.467056,1082.480835 
	C193.296875,1080.013184 205.513535,1078.257935 217.567108,1078.192871 
	C289.560028,1077.803833 361.556122,1078.000000 433.551178,1078.000000 
	C435.517181,1078.000000 437.483185,1078.000000 440.000488,1078.000000 
	C440.000488,1080.361450 440.000519,1082.305786 440.000519,1084.250000 
	C440.000275,1156.244995 440.292633,1228.241943 439.829834,1300.234009 
	C439.681885,1323.250366 434.494995,1345.640869 426.321533,1367.225952 
	C418.385895,1388.182861 407.408722,1407.526123 393.348114,1424.877441 
	C381.377747,1439.649292 368.027008,1453.384399 352.019592,1463.828735 
	C338.787720,1472.462158 324.674591,1479.744873 310.603241,1487.800659 
z"/>
</svg>