<svg version="1.1" id="Layer_1" xmlns="http://www.w3.org/2000/svg" xmlns:xlink="http://www.w3.org/1999/xlink" x="0px" y="0px"
	 width="40" height="40" viewBox="0 0 256 256" enable-background="new 0 0 256 256" xml:space="preserve">
<path fill="#924E96" opacity="1.000000" stroke="none" 
	d="
M106.000000,1.000001 
	C120.687561,1.000000 135.375122,1.000000 150.365204,1.392870 
	C152.655670,2.279975 154.640961,2.785277 156.631973,3.266785 
	C186.123703,10.399033 210.767670,25.356575 229.639267,49.228764 
	C242.678833,65.723564 251.792892,84.146904 255.089539,105.162361 
	C255.198593,105.857697 256.339874,106.391106 257.000000,107.000000 
	C257.000000,121.687561 257.000000,136.375122 256.617615,151.351105 
	C255.850418,152.143326 255.219131,152.601456 255.116135,153.157486 
	C250.287598,179.224167 238.250092,201.354645 219.501572,220.097595 
	C201.101685,238.491974 179.224503,249.998367 153.815155,255.085175 
	C153.110565,255.226242 152.600677,256.339874 152.000000,257.000000 
	C136.979111,257.000000 121.958214,257.000000 106.648865,256.617615 
	C105.856529,255.850372 105.398621,255.220184 104.842186,255.115952 
	C78.803444,250.238129 56.600101,238.343872 37.904358,219.504471 
	C19.597336,201.056793 7.959040,179.248840 2.914630,153.815323 
	C2.775001,153.111328 1.660116,152.600769 1.000000,152.000000 
	C1.000000,136.979111 1.000000,121.958214 1.382441,106.648598 
	C2.107054,106.013527 2.691462,105.707481 2.756739,105.315063 
	C6.499399,82.816238 16.232773,62.919136 30.911339,45.844978 
	C50.160233,23.454605 74.400902,8.731515 103.686005,2.929963 
	C104.550842,2.758633 105.232788,1.664096 106.000000,1.000001 
M79.056435,227.549362 
	C91.374924,233.411591 104.187744,237.959183 117.832657,238.879196 
	C135.188110,240.049423 152.381592,238.744110 168.728455,231.952377 
	C180.401108,227.102661 191.420593,221.076965 200.853561,212.581772 
	C213.565689,201.133377 223.667358,187.815552 230.616959,171.975784 
	C238.460159,154.099243 240.575623,135.373642 238.706177,116.427986 
	C236.806351,97.174461 229.561584,79.404381 217.866531,63.835331 
	C204.773804,46.405602 188.135956,33.595409 167.548004,25.780306 
	C149.687668,19.000595 131.495239,17.589840 112.756470,19.971603 
	C96.034714,22.096996 80.716026,28.340242 67.094894,37.750622 
	C50.274174,49.371494 37.302635,64.576660 28.660376,83.545868 
	C18.516787,105.810417 16.327244,128.779419 21.155666,152.356247 
	C25.490137,173.521133 35.808136,191.641922 51.328308,206.942566 
	C59.493599,214.992355 68.559662,221.518051 79.056435,227.549362 
z"/>
<path fill="#000000" opacity="0.000000" stroke="none" 
	d="
M257.000000,106.531342 
	C256.339874,106.391106 255.198593,105.857697 255.089539,105.162361 
	C251.792892,84.146904 242.678833,65.723564 229.639267,49.228764 
	C210.767670,25.356575 186.123703,10.399033 156.631973,3.266785 
	C154.640961,2.785277 152.655670,2.279975 150.833862,1.392870 
	C186.260269,1.000000 221.520554,1.000000 257.000000,1.000000 
	C257.000000,36.020588 257.000000,71.041634 257.000000,106.531342 
z"/>
<path fill="#000000" opacity="0.000000" stroke="none" 
	d="
M105.531342,1.000001 
	C105.232788,1.664096 104.550842,2.758633 103.686005,2.929963 
	C74.400902,8.731515 50.160233,23.454605 30.911339,45.844978 
	C16.232773,62.919136 6.499399,82.816238 2.756739,105.315063 
	C2.691462,105.707481 2.107054,106.013527 1.382441,106.179939 
	C1.000000,71.073059 1.000000,36.146111 1.000000,1.000000 
	C35.687252,1.000000 70.374969,1.000000 105.531342,1.000001 
z"/>
<path fill="#000000" opacity="0.000000" stroke="none" 
	d="
M1.000000,152.468658 
	C1.660116,152.600769 2.775001,153.111328 2.914630,153.815323 
	C7.959040,179.248840 19.597336,201.056793 37.904358,219.504471 
	C56.600101,238.343872 78.803444,250.238129 104.842186,255.115952 
	C105.398621,255.220184 105.856529,255.850372 106.180206,256.617615 
	C71.073059,257.000000 36.146114,257.000000 1.000000,257.000000 
	C1.000000,222.312744 1.000000,187.625031 1.000000,152.468658 
z"/>
<path fill="#000000" opacity="0.000000" stroke="none" 
	d="
M152.468658,257.000000 
	C152.600677,256.339874 153.110565,255.226242 153.815155,255.085175 
	C179.224503,249.998367 201.101685,238.491974 219.501572,220.097595 
	C238.250092,201.354645 250.287598,179.224167 255.116135,153.157486 
	C255.219131,152.601456 255.850418,152.143326 256.617615,151.819763 
	C257.000000,186.926941 257.000000,221.853882 257.000000,257.000000 
	C222.312744,257.000000 187.625031,257.000000 152.468658,257.000000 
z"/>
<path fill="#000000" opacity="0.000000" stroke="none" 
	d="
M78.749962,227.324005 
	C68.559662,221.518051 59.493599,214.992355 51.328308,206.942566 
	C35.808136,191.641922 25.490137,173.521133 21.155666,152.356247 
	C16.327244,128.779419 18.516787,105.810417 28.660376,83.545868 
	C37.302635,64.576660 50.274174,49.371494 67.094894,37.750622 
	C80.716026,28.340242 96.034714,22.096996 112.756470,19.971603 
	C131.495239,17.589840 149.687668,19.000595 167.548004,25.780306 
	C188.135956,33.595409 204.773804,46.405602 217.866531,63.835331 
	C229.561584,79.404381 236.806351,97.174461 238.706177,116.427986 
	C240.575623,135.373642 238.460159,154.099243 230.616959,171.975784 
	C223.667358,187.815552 213.565689,201.133377 200.853561,212.581772 
	C191.420593,221.076965 180.401108,227.102661 168.728455,231.952377 
	C152.381592,238.744110 135.188110,240.049423 117.832657,238.879196 
	C104.187744,237.959183 91.374924,233.411591 78.749962,227.324005 
M142.983475,83.278534 
	C143.322556,79.512100 143.574905,75.735397 144.019363,71.981438 
	C144.866608,64.825409 146.100449,57.703281 146.642593,50.526951 
	C147.038498,45.286339 149.054108,39.322685 143.604141,35.336170 
	C137.373093,30.778322 131.685440,32.263939 126.929764,39.296677 
	C107.255058,68.391754 87.602386,97.501747 67.904808,126.581329 
	C64.831673,131.118210 63.485352,136.029831 66.108063,140.948471 
	C68.558189,145.543427 73.397522,146.019897 78.152962,146.010666 
	C88.617119,145.990326 99.081352,146.004349 109.546875,146.004349 
	C108.332932,157.900879 107.214195,169.344193 105.982071,180.775269 
	C105.121124,188.762634 104.047981,196.727066 103.183533,204.714081 
	C102.781853,208.425293 102.167419,212.211166 102.511795,215.882309 
	C103.016747,221.265244 106.282394,224.603271 111.798943,225.510315 
	C116.959259,226.358765 120.111755,223.161362 122.653542,219.627808 
	C131.221176,207.717148 139.496216,195.596451 147.938858,183.595276 
	C156.850784,170.927063 165.888092,158.346725 174.752533,145.645584 
	C180.529007,137.368958 186.527618,129.199341 191.626877,120.512276 
	C196.252121,112.632759 191.300751,105.010063 182.242828,105.002342 
	C169.915329,104.991837 157.587814,105.010422 145.260361,104.986977 
	C143.550690,104.983719 141.841370,104.811638 140.203308,104.721642 
	C140.513580,101.650841 140.688904,99.211456 141.020142,96.793427 
	C141.596664,92.585075 142.269409,88.389908 142.983475,83.278534 
z"/>
<path fill="#924E96" opacity="1.000000" stroke="none" 
	d="
M142.942642,83.733871 
	C142.269409,88.389908 141.596664,92.585075 141.020142,96.793427 
	C140.688904,99.211456 140.513580,101.650841 140.203308,104.721642 
	C141.841370,104.811638 143.550690,104.983719 145.260361,104.986977 
	C157.587814,105.010422 169.915329,104.991837 182.242828,105.002342 
	C191.300751,105.010063 196.252121,112.632759 191.626877,120.512276 
	C186.527618,129.199341 180.529007,137.368958 174.752533,145.645584 
	C165.888092,158.346725 156.850784,170.927063 147.938858,183.595276 
	C139.496216,195.596451 131.221176,207.717148 122.653542,219.627808 
	C120.111755,223.161362 116.959259,226.358765 111.798943,225.510315 
	C106.282394,224.603271 103.016747,221.265244 102.511795,215.882309 
	C102.167419,212.211166 102.781853,208.425293 103.183533,204.714081 
	C104.047981,196.727066 105.121124,188.762634 105.982071,180.775269 
	C107.214195,169.344193 108.332932,157.900879 109.546875,146.004349 
	C99.081352,146.004349 88.617119,145.990326 78.152962,146.010666 
	C73.397522,146.019897 68.558189,145.543427 66.108063,140.948471 
	C63.485352,136.029831 64.831673,131.118210 67.904808,126.581329 
	C87.602386,97.501747 107.255058,68.391754 126.929764,39.296677 
	C131.685440,32.263939 137.373093,30.778322 143.604141,35.336170 
	C149.054108,39.322685 147.038498,45.286339 146.642593,50.526951 
	C146.100449,57.703281 144.866608,64.825409 144.019363,71.981438 
	C143.574905,75.735397 143.322556,79.512100 142.942642,83.733871 
z"/>
</svg>