<?xml version="1.0" encoding="utf-8"?>
<!-- Generator: Adobe Illustrator 19.0.1, SVG Export Plug-In . SVG Version: 6.00 Build 0)  -->
<svg width="40" height="40" role="img" version="1.1" id="Layer_1" xmlns="http://www.w3.org/2000/svg" xmlns:xlink="http://www.w3.org/1999/xlink" x="0px" y="0px" viewBox="0 0 700 700" style="enable-background:new 0 0 700 700;" xml:space="preserve">
<style type="text/css">
	.st0{fill:#FFB903;}
	.st1{fill:#03A5F0;}
	.st2{fill:#F35022;}
	.st3{fill:#80BB03;}
	.st4{fill:#E6E6E6;}
</style>
<g>
	<g id="XMLID_1_">
		<g>
			<path class="st0" d="M484.1,377.6l-31.2,109.2c-26.1,10-48.1,14.9-66.1,14.9c-9.3,0-19.1-1.9-29.4-5.8s-19-7.8-26.1-11.6
				c-7.1-3.9-10.7-5.9-11-6.1L353,366.3c17,15.1,40.4,22.6,70.1,22.6C440.3,388.9,460.7,385.1,484.1,377.6z"/>
			<path class="st1" d="M333.1,352l-32.9,114.2c-15.5-14.8-36.9-22.3-64.1-22.3c-16.8,0-37.3,4.6-61.4,14L206.9,345
				c18.1-7.3,37.5-12.1,58.1-14.3h6.3c18.6,0,34.4,4.2,47.5,12.6C323.9,345.8,328.6,348.7,333.1,352z"/>
			<path class="st2" d="M372.9,212.9l-33.5,113.2c-15.9-13-36.6-20.6-62.1-22.6c-17.5,0-38.4,4.9-62.8,14.6l31.9-112.2
				c24.1-9.5,44.4-14.3,60.8-14.3c15.5,0,30.1,3.2,43.8,9.6C365.6,207.9,372.9,211.8,372.9,212.9z"/>
			<path class="st3" d="M525,235.8l-32.2,111.9c-22.8,10-43.6,14.9-62.4,14.9c-28.1,0-51.4-7.2-69.7-21.6v-0.3l32.9-112.9
				c17.5,15.1,40.5,22.6,69.1,22.6C480,250.4,500.9,245.5,525,235.8z"/>
			<path class="st4" d="M653.6,224.5c16.5,39.8,24.7,81.7,24.7,125.5s-8.3,85.7-24.7,125.5c-16.5,39.8-40.3,75.4-71.5,106.6
				c-31.2,31.2-66.7,55.1-106.6,71.5c-39.9,16.5-81.7,24.7-125.5,24.7s-85.7-8.3-125.5-24.7c-39.8-16.5-75.4-40.3-106.6-71.5
				c-31.2-31.2-55.1-66.7-71.6-106.6C29.9,435.7,21.6,393.8,21.6,350s8.2-85.7,24.7-125.5c16.5-39.8,40.3-75.4,71.6-106.6
				s66.7-55.1,106.6-71.6c39.8-16.5,81.7-24.7,125.5-24.7s85.7,8.3,125.5,24.7c39.8,16.5,75.4,40.3,106.6,71.6
				C613.3,149.1,637.2,184.6,653.6,224.5z M492.8,347.7L525,235.8c-24.1,9.7-44.9,14.6-62.4,14.6c-28.6,0-51.6-7.5-69.1-22.6
				l-32.9,112.9v0.3c18.4,14.4,41.6,21.6,69.7,21.6C449.2,362.6,470,357.6,492.8,347.7z M452.9,486.8l31.2-109.2
				c-23.5,7.5-43.8,11.3-61.1,11.3c-29.7,0-53-7.5-70.1-22.6l-32.5,111.9c0.2,0.2,3.9,2.3,11,6.1c7.1,3.9,15.8,7.8,26.1,11.6
				s20.1,5.8,29.4,5.8C404.8,501.7,426.8,496.8,452.9,486.8z M339.4,326.1l33.5-113.2c0-1.1-7.3-5-21.9-11.6
				c-13.7-6.4-28.3-9.6-43.8-9.6c-16.4,0-36.6,4.8-60.8,14.3l-31.9,112.2c24.4-9.7,45.3-14.6,62.8-14.6
				C302.7,305.5,323.4,313,339.4,326.1z M300.2,466.2L333.1,352c-4.4-3.3-9.2-6.2-14.3-8.6c-13.1-8.4-28.9-12.6-47.5-12.6H265
				c-20.6,2.2-40,7-58.1,14.3l-32.2,112.9c24.1-9.3,44.6-14,61.4-14C263.3,444,284.7,451.4,300.2,466.2z"/>
		</g>
		<g>
		</g>
	</g>
</g>
</svg>
